<svg xmlns="http://www.w3.org/2000/svg" viewBox="0 0 1440 720" preserveAspectRatio="none">
<rect width="1440" height="720" fill="#00a0dc"/>
<polygon points="481.7,680.2 480.5,682.2 479.4,684.0 471.0,683.5 462.0,683.7 457.0,682.4 457.0,682.2 454.8,681.0 463.8,681.2 472.5,681.6 475.4,679.9 477.6,678.5 481.7,680.2" fill="#78b428" stroke="#ffffff" stroke-width="6" stroke-linejoin="round"/>
<polygon points="83.2,678.0 75.5,678.5 70.2,677.1 67.9,675.7 67.7,675.5 65.1,674.4 65.1,674.4 67.6,672.9 75.0,673.5 79.0,674.8 82.1,676.2 83.2,678.0" fill="#78b428" stroke="#ffffff" stroke-width="6" stroke-linejoin="round"/>
<polygon points="539.4,672.2 544.3,673.9 546.0,676.3 546.5,678.1 546.7,680.1 540.5,681.4 534.0,682.4 526.5,683.3 518.1,684.1 508.6,683.9 503.3,682.5 504.0,680.9 512.6,679.8 516.0,678.5 518.5,676.7 520.3,675.2 522.8,673.8 525.4,672.2 525.4,672.2 527.4,672.2 533.3,671.3 539.4,672.2" fill="#78b428" stroke="#ffffff" stroke-width="6" stroke-linejoin="round"/>
<polygon points="235.2,654.0 240.3,654.6 245.1,653.9 242.8,655.3 239.1,656.4 233.5,656.0 229.5,654.6 229.5,654.6 230.4,653.3 235.2,654.0" fill="#78b428" stroke="#ffffff" stroke-width="6" stroke-linejoin="round"/>
<polygon points="217.8,653.9 223.9,655.5 221.5,655.3 216.4,654.9 210.9,653.8 210.9,653.8 213.8,653.0 217.8,653.9" fill="#78b428" stroke="#ffffff" stroke-width="6" stroke-linejoin="round"/>
<polygon points="324.1,647.7 328.5,648.3 332.8,647.8 335.2,650.1 332.1,649.8 327.2,649.9 322.3,649.8 316.9,650.0 312.8,649.2 310.7,647.6 310.7,647.6 313.2,646.9 318.3,647.4 324.1,647.7" fill="#78b428" stroke="#ffffff" stroke-width="6" stroke-linejoin="round"/>
<polygon points="446.2,643.8 446.7,645.6 446.0,647.2 444.9,648.7 440.2,649.2 435.7,650.0 430.4,649.9 432.4,648.4 427.7,648.9 423.2,649.5 420.2,648.3 419.9,646.6 424.3,645.1 424.3,645.1 427.1,644.6 431.7,644.8 432.9,642.7 433.1,641.2 433.0,638.0 435.3,636.1 439.0,635.5 441.1,637.0 442.0,638.5 443.8,640.3 445.1,642.0 446.2,643.8" fill="#78b428" stroke="#ffffff" stroke-width="6" stroke-linejoin="round"/>
<polygon points="485.5,616.6 483.8,617.5 480.8,616.8 477.6,617.2 474.8,618.2 471.9,619.2 470.0,620.4 469.4,621.9 469.6,623.4 471.5,624.8 468.8,625.7 465.0,626.0 462.8,627.3 460.5,628.6 458.0,630.3 457.3,631.8 458.7,633.5 460.9,634.7 464.2,635.7 467.2,636.9 468.9,638.5 469.7,640.0 470.9,641.5 472.8,642.9 473.9,644.4 474.5,648.0 475.7,649.5 476.0,651.1 477.2,652.7 476.7,654.8 474.5,656.4 472.1,657.8 466.8,658.3 465.0,659.7 462.6,661.1 456.6,662.5 451.2,663.2 446.2,664.0 440.8,664.9 437.6,666.5 431.2,666.7 424.1,666.5 417.8,666.9 411.0,666.9 412.3,668.4 418.4,669.1 422.9,670.2 425.4,671.6 420.9,672.9 414.0,672.5 408.3,673.5 408.1,675.2 407.9,676.7 412.6,678.1 413.5,679.5 418.6,681.0 427.0,681.7 434.2,682.8 439.9,684.0 447.2,685.3 457.2,685.9 467.0,687.0 473.8,688.2 481.2,689.5 485.2,691.4 487.1,692.9 492.0,691.5 498.5,690.3 505.5,689.0 513.8,688.0 521.0,686.9 530.9,686.8 540.7,687.4 548.8,688.3 551.4,686.6 556.9,685.4 567.0,685.3 574.9,684.5 582.5,683.6 590.8,683.1 599.6,682.4 605.8,681.4 603.0,679.9 601.3,678.5 601.3,677.0 593.5,677.2 585.3,677.8 577.4,677.8 576.3,676.3 576.9,673.4 578.7,672.5 584.4,671.6 591.2,670.6 596.0,669.4 600.9,668.3 604.5,666.7 610.0,666.0 615.4,665.4 618.1,665.1 624.3,665.0 630.2,664.4 635.1,663.6 640.0,662.7 644.3,661.8 649.9,660.5 653.4,659.2 657.2,658.0 658.4,656.4 654.1,655.5 655.5,653.8 658.2,652.6 662.4,651.8 666.8,650.9 670.8,649.6 674.0,648.0 675.9,646.2 678.8,645.1 683.6,645.3 685.6,646.6 690.3,646.8 690.5,645.3 692.5,643.7 696.8,644.1 697.9,645.6 702.6,645.8 707.8,645.1 712.8,644.7 717.4,644.9 719.1,646.6 723.5,645.2 727.5,644.5 732.1,644.0 736.6,643.4 740.6,642.5 745.1,641.8 748.5,641.0 751.0,639.6 753.9,640.6 758.1,640.0 761.0,641.9 763.3,643.3 767.8,642.6 769.6,641.0 773.7,639.9 778.9,640.1 780.5,641.6 783.8,640.1 788.1,639.7 792.8,639.5 797.0,639.6 801.5,640.0 805.8,640.3 807.7,641.6 810.3,642.8 814.7,642.1 819.4,641.9 823.9,641.9 828.4,641.8 832.4,641.3 836.6,640.8 840.1,639.7 843.9,639.0 848.0,638.6 851.0,637.5 853.2,635.3 855.5,634.0 859.6,634.6 861.2,636.0 864.6,637.0 868.8,636.7 871.6,638.1 874.6,639.1 878.7,638.2 880.1,636.4 883.7,635.7 887.8,634.4 891.8,633.9 896.5,633.1 899.6,632.2 902.9,631.3 906.0,630.4 909.8,630.9 913.4,629.5 916.0,628.4 919.7,628.4 923.0,627.5 923.8,626.1 927.2,625.0 930.5,624.2 934.5,623.6 938.1,623.3 941.7,623.5 945.4,623.9 948.6,625.0 949.0,626.7 952.5,628.1 955.0,629.2 959.8,629.6 962.4,630.7 965.7,631.8 969.5,632.1 972.8,631.3 976.2,629.6 980.0,630.5 983.9,631.0 987.6,631.4 991.6,631.7 995.6,631.7 998.9,635.9 998.7,636.9 998.2,638.7 994.4,639.7 991.3,641.2 991.8,642.8 996.3,642.7 995.7,644.3 993.7,645.8 991.8,647.4 994.9,648.7 999.5,649.1 1004.1,648.4 1006.3,646.8 1007.6,645.3 1009.8,644.0 1012.3,642.9 1013.3,641.5 1015.5,639.5 1018.0,639.1 1022.5,638.9 1026.5,638.5 1030.6,637.9 1032.5,636.3 1033.7,634.8 1036.5,633.3 1040.4,632.3 1043.7,631.5 1045.9,630.2 1048.2,629.5 1051.1,628.8 1055.1,629.2 1058.7,628.8 1062.6,628.4 1067.0,628.6 1069.9,627.5 1071.9,624.8 1073.4,625.9 1075.3,627.8 1078.7,628.6 1082.5,628.9 1086.4,628.4 1090.4,628.8 1094.2,628.8 1096.7,628.4 1100.1,628.7 1103.1,629.5 1106.7,629.0 1111.0,629.0 1114.7,628.4 1118.9,629.0 1121.5,627.7 1123.6,626.3 1126.3,625.2 1131.3,622.3 1133.9,622.8 1137.0,623.9 1139.6,625.3 1144.7,627.7 1148.6,627.8 1152.3,627.8 1156.6,627.3 1160.9,626.8 1164.2,625.7 1167.0,624.5 1171.4,624.4 1174.4,623.5 1177.6,624.3 1179.6,625.5 1182.4,626.8 1186.8,626.6 1189.5,627.7 1194.3,628.7 1199.3,629.1 1203.5,628.8 1206.6,627.5 1209.3,626.3 1212.9,625.9 1216.5,626.5 1220.6,626.9 1224.4,626.3 1228.0,626.3 1231.5,626.6 1235.2,627.0 1238.8,626.3 1243.1,625.7 1247.2,625.5 1251.7,625.5 1255.4,625.2 1259.0,624.8 1260.1,622.9 1260.3,621.2 1262.8,622.3 1263.5,624.1 1264.8,625.8 1266.5,627.1 1269.8,627.8 1274.4,627.6 1279.6,627.5 1283.2,627.3 1288.5,627.3 1292.2,627.2 1297.5,627.3 1302.0,627.7 1304.8,628.9 1304.0,630.4 1306.6,631.6 1310.9,632.5 1315.4,633.5 1320.5,634.2 1325.9,634.9 1330.0,635.5 1334.6,635.6 1337.1,634.2 1340.7,635.3 1343.7,636.6 1347.2,637.5 1352.1,637.9 1356.7,638.4 1358.7,640.0 1363.2,640.9 1366.3,642.3 1370.7,642.9 1375.4,642.9 1379.7,643.1 1384.5,643.0 1389.2,643.3 1393.7,643.9 1397.9,644.8 1402.0,645.6 1404.8,646.8 1404.4,648.4 1402.2,649.8 1400.4,651.6 1399.0,653.0 1397.1,654.6 1391.9,655.3 1389.5,656.7 1384.4,657.5 1382.6,659.1 1379.8,660.6 1376.9,661.8 1375.3,663.5 1374.3,665.0 1373.9,666.8 1374.0,668.3 1376.2,669.8 1377.1,671.3 1379.0,672.7 1386.4,673.3 1388.0,675.0 1380.8,675.6 1374.7,676.5 1367.1,676.6 1363.7,678.9 1363.0,680.8 1361.3,682.3 1359.2,683.8 1364.5,685.1 1366.5,686.8 1370.0,688.2 1374.8,689.6 1380.4,690.8 1386.4,692.1 1395.6,693.3 1397.6,695.3 1409.1,696.2 1409.9,696.5 1412.9,697.7 1423.9,696.6 1433.1,697.9 1440.0,698.9 1440.0,720.0 0.0,720.0 0.0,698.9 0.2,698.9 3.8,696.6 11.0,697.8 11.4,697.7 12.6,697.3 13.9,696.9 15.1,696.6 15.7,696.4 16.3,696.4 16.7,696.5 22.5,698.1 27.5,696.5 28.4,696.2 40.2,695.5 44.0,696.5 45.9,696.9 51.9,698.3 63.3,699.3 72.3,700.6 87.7,701.5 99.2,700.4 116.2,701.2 125.9,702.4 136.4,701.3 147.6,700.2 148.4,698.3 132.7,698.1 119.8,697.2 116.4,695.6 105.7,694.8 106.4,693.0 107.8,691.3 109.3,689.8 108.6,688.2 101.9,687.1 98.8,685.7 92.7,684.4 102.4,684.6 111.6,684.0 117.4,685.3 124.5,684.2 131.1,682.7 134.3,681.4 132.9,679.7 127.7,678.6 121.9,677.4 113.6,677.2 106.4,676.6 98.7,676.3 96.1,674.8 90.9,673.5 87.8,672.1 86.5,667.6 88.5,667.9 92.1,669.2 98.7,668.8 105.0,668.3 108.3,670.0 114.7,669.6 120.0,668.7 125.0,667.6 129.6,666.3 135.6,665.9 135.4,664.4 134.0,662.9 135.2,661.5 140.4,660.8 142.7,662.1 148.8,661.4 153.4,660.3 159.2,660.3 164.6,659.9 170.0,658.9 174.3,658.1 179.1,657.2 182.3,657.4 185.0,657.8 191.0,657.2 196.3,657.9 201.8,657.8 207.0,657.3 212.4,657.7 218.4,658.1 224.0,657.9 229.8,658.0 235.7,658.1 241.2,657.9 245.3,656.7 250.1,656.1 255.1,657.0 259.9,656.3 264.2,654.9 266.8,656.1 268.2,657.5 270.8,658.9 275.0,657.7 279.7,659.2 285.1,659.6 289.8,660.7 295.4,660.5 300.5,659.8 306.5,660.0 311.9,660.5 317.4,661.2 319.5,659.5 316.9,658.2 315.0,656.7 309.8,656.4 307.5,654.9 306.7,653.4 305.3,650.5 308.3,651.0 313.6,651.3 318.7,651.0 323.5,651.6 327.5,652.8 329.2,654.2 334.7,654.5 339.8,653.9 345.3,653.1 350.2,652.7 354.3,653.6 359.6,653.3 363.1,650.2 366.3,652.0 370.9,652.7 375.9,652.4 379.2,653.9 384.5,654.1 389.3,654.5 394.1,655.4 397.3,653.9 398.8,652.5 402.8,654.1 408.3,653.7 412.4,654.5 415.1,655.9 420.4,655.5 424.6,654.6 428.7,653.6 433.5,653.1 439.2,652.6 444.3,652.0 448.2,651.2 450.5,649.9 451.5,648.2 451.0,646.6 449.7,645.0 448.3,643.4 447.1,641.8 446.1,640.4 445.8,638.9 446.2,637.3 448.1,635.8 449.7,634.2 450.3,632.6 449.5,630.9 449.0,629.3 451.0,627.5 453.2,626.3 455.8,624.8 458.5,623.6 461.7,622.4 463.3,620.7 465.5,619.6 468.0,618.6 471.8,618.3 474.3,617.1 477.2,616.3 480.5,615.8 483.3,614.8 485.6,613.6 488.8,613.1 491.1,614.1 489.6,615.4 485.5,616.6" fill="#78b428" stroke="#ffffff" stroke-width="6" stroke-linejoin="round"/>
<polygon points="449.0,575.4 454.2,577.8 459.8,578.8 458.0,580.8 454.2,581.0 452.2,579.6 450.8,581.2 447.4,582.4 443.1,582.0 440.2,580.8 436.0,580.2 430.9,578.0 426.9,575.8 421.3,571.3 424.6,572.2 430.3,574.9 435.6,576.3 437.6,574.5 438.9,571.7 442.6,570.1 445.5,570.5 445.5,570.5 447.0,572.4 449.0,575.4" fill="#78b428" stroke="#ffffff" stroke-width="6" stroke-linejoin="round"/>
<polygon points="485.8,564.4 489.0,566.2 487.8,567.6 482.4,568.8 480.6,567.4 477.2,569.2 475.2,567.4 480.0,565.0 483.4,566.0 485.8,564.4" fill="#78b428" stroke="#ffffff" stroke-width="6" stroke-linejoin="round"/>
<polygon points="1001.1,558.8 995.0,559.1 994.9,557.0 995.5,555.3 995.7,554.5 998.3,555.8 1002.1,556.3 1002.2,557.0 1001.1,558.8" fill="#78b428" stroke="#ffffff" stroke-width="6" stroke-linejoin="round"/>
<polygon points="1301.6,523.2 1305.5,524.6 1307.6,524.0 1310.8,523.2 1313.2,523.5 1313.4,528.2 1312.1,529.6 1311.7,532.8 1310.3,531.8 1307.5,534.5 1306.7,534.3 1304.2,534.2 1301.7,530.8 1301.2,528.1 1298.9,524.7 1299.0,522.8 1301.6,523.2" fill="#78b428" stroke="#ffffff" stroke-width="6" stroke-linejoin="round"/>
<polygon points="1412.1,523.7 1413.0,525.3 1415.8,523.7 1417.0,525.4 1417.0,527.1 1415.5,528.9 1412.9,531.9 1410.8,533.5 1412.3,535.4 1409.2,535.5 1405.8,537.0 1404.7,539.6 1402.5,543.6 1399.3,545.4 1397.3,546.6 1393.6,546.5 1391.1,545.2 1386.7,544.9 1386.0,543.4 1388.2,540.4 1393.2,536.5 1395.8,535.7 1398.7,534.2 1402.1,532.1 1404.5,530.1 1406.3,527.1 1407.8,526.1 1408.4,523.8 1411.2,522.0 1412.1,523.7" fill="#78b428" stroke="#ffffff" stroke-width="6" stroke-linejoin="round"/>
<polygon points="1418.4,504.6 1421.3,508.8 1421.4,506.1 1423.2,507.2 1423.8,510.2 1427.1,511.5 1429.8,511.8 1432.0,510.3 1434.1,510.8 1433.1,514.3 1431.9,516.7 1428.8,516.6 1427.8,517.8 1428.1,519.5 1427.5,520.3 1426.0,522.4 1424.0,525.2 1421.0,526.8 1420.3,525.7 1418.6,525.1 1420.9,521.8 1419.6,519.6 1415.3,518.0 1415.4,516.6 1418.3,515.2 1419.0,512.1 1418.8,509.5 1417.2,506.8 1417.3,506.1 1415.4,504.5 1412.2,500.9 1410.5,498.1 1412.0,497.8 1414.2,500.0 1417.3,501.1 1418.4,504.6" fill="#78b428" stroke="#ffffff" stroke-width="6" stroke-linejoin="round"/>
<polygon points="1388.5,448.6 1387.0,449.6 1384.8,448.5 1381.9,446.7 1379.3,444.6 1376.7,441.8 1376.1,440.4 1377.8,440.5 1380.1,441.8 1381.8,443.2 1383.1,444.3 1386.4,446.8 1388.5,448.6" fill="#78b428" stroke="#ffffff" stroke-width="6" stroke-linejoin="round"/>
<polygon points="1433.5,429.4 1434.9,430.5 1434.2,432.6 1431.7,433.2 1429.5,432.7 1429.1,430.9 1430.7,429.5 1432.5,430.0 1433.5,429.4" fill="#78b428" stroke="#ffffff" stroke-width="6" stroke-linejoin="round"/>
<polygon points="1437.5,427.2 1434.9,428.0 1434.4,426.6 1436.4,425.7 1437.7,425.5 1440.0,424.3 1440.0,426.2 1437.5,427.2" fill="#78b428" stroke="#ffffff" stroke-width="6" stroke-linejoin="round"/>
<polygon points="0.3,426.0 0.0,426.2 0.0,424.3 0.8,424.1 0.3,426.0" fill="#78b428" stroke="#ffffff" stroke-width="6" stroke-linejoin="round"/>
<polygon points="1391.4,425.9 1390.1,426.4 1388.7,424.6 1388.9,423.6 1391.4,425.9" fill="#78b428" stroke="#ffffff" stroke-width="6" stroke-linejoin="round"/>
<polygon points="1388.4,419.7 1389.1,423.0 1388.0,422.5 1387.2,422.7 1386.6,421.6 1386.5,418.5 1388.4,419.7" fill="#78b428" stroke="#ffffff" stroke-width="6" stroke-linejoin="round"/>
<polygon points="920.2,414.2 920.9,419.0 921.9,420.9 921.5,422.8 920.8,424.0 919.4,421.7 918.7,422.8 919.5,425.8 919.1,427.5 918.0,428.4 917.7,431.8 916.2,436.5 914.2,442.0 911.7,449.6 910.2,455.1 908.4,459.8 905.1,460.7 901.6,462.4 899.3,461.4 896.2,460.0 895.1,457.8 894.8,454.3 893.4,451.1 893.0,448.2 893.7,445.3 895.6,444.7 895.6,443.3 897.5,440.3 897.9,437.7 896.9,435.8 896.2,433.3 895.9,429.6 897.2,427.4 897.8,424.9 899.8,424.7 902.0,423.9 903.5,423.2 905.2,423.1 907.5,420.8 910.8,418.4 912.0,416.4 911.5,414.7 913.2,415.1 915.4,412.4 915.5,410.0 916.8,408.2 918.2,409.9 919.2,411.6 920.2,414.2" fill="#78b428" stroke="#ffffff" stroke-width="6" stroke-linejoin="round"/>
<polygon points="1294.2,415.1 1295.7,418.2 1298.3,416.7 1299.6,418.4 1301.5,419.9 1301.1,421.7 1301.9,425.1 1302.5,427.1 1303.6,427.6 1304.6,431.0 1304.3,433.1 1305.5,435.8 1309.9,437.9 1312.7,439.8 1315.4,441.6 1314.9,442.5 1317.2,445.0 1318.7,449.4 1320.3,448.5 1321.9,450.2 1322.9,449.6 1323.6,453.8 1326.4,456.3 1328.3,457.8 1331.4,461.1 1332.5,464.3 1332.6,466.6 1332.4,469.0 1334.3,472.4 1334.0,476.0 1333.4,477.8 1332.3,481.4 1332.4,483.7 1331.6,486.6 1329.8,490.2 1326.8,492.2 1325.4,495.3 1324.0,497.2 1322.9,500.7 1321.3,502.7 1320.3,505.7 1319.8,508.4 1320.0,509.7 1317.7,511.1 1313.2,511.2 1309.5,512.9 1307.7,514.4 1305.3,516.1 1302.0,514.4 1299.5,513.7 1300.1,511.6 1297.9,512.3 1294.4,515.2 1291.0,514.2 1288.7,513.5 1286.4,513.2 1282.6,512.1 1280.0,509.6 1279.2,506.6 1278.3,504.6 1276.3,502.9 1272.5,502.4 1273.8,500.5 1272.8,497.5 1270.9,500.3 1267.3,501.0 1269.4,498.8 1270.0,496.5 1271.6,494.6 1271.2,491.6 1268.0,495.0 1265.5,496.4 1264.0,499.6 1260.8,497.9 1261.0,495.8 1258.5,492.9 1256.3,491.4 1257.1,490.5 1252.0,488.0 1249.2,487.9 1245.3,486.0 1238.1,486.4 1233.0,487.8 1228.4,489.1 1224.6,488.9 1220.4,490.9 1216.9,491.8 1216.1,493.9 1214.6,495.6 1211.2,495.7 1208.7,496.0 1205.2,495.3 1202.3,495.7 1199.6,495.9 1197.2,498.0 1196.0,497.9 1194.0,499.0 1192.1,500.3 1189.2,500.1 1186.5,500.1 1182.3,497.5 1180.1,496.8 1180.2,494.5 1182.2,493.9 1182.9,493.0 1182.7,491.6 1183.2,488.8 1182.8,486.4 1180.6,482.4 1180.0,480.1 1180.2,477.8 1178.6,475.2 1178.5,474.1 1176.7,472.5 1176.2,469.3 1173.9,466.2 1173.4,464.5 1175.1,466.2 1173.8,462.5 1175.7,463.6 1176.9,465.2 1176.9,463.1 1174.9,460.0 1174.5,458.7 1173.6,457.5 1174.0,455.2 1174.8,454.2 1175.4,452.2 1174.9,449.9 1176.6,447.0 1176.9,450.1 1178.6,447.3 1181.8,446.0 1183.8,444.3 1186.8,442.8 1188.7,442.5 1189.8,443.0 1192.9,441.5 1195.3,441.1 1196.0,440.2 1197.0,439.8 1199.2,439.9 1203.4,438.7 1205.6,437.0 1206.6,434.8 1209.0,432.8 1209.1,431.2 1209.3,429.0 1212.1,425.6 1213.7,429.1 1215.4,428.3 1214.0,426.4 1215.3,424.4 1217.0,425.3 1217.5,422.3 1219.7,420.3 1220.7,418.7 1222.7,418.0 1222.7,416.9 1224.5,417.4 1224.6,416.4 1226.3,415.8 1228.3,415.3 1231.2,417.1 1233.4,419.5 1235.9,419.5 1238.5,419.9 1237.6,417.7 1239.6,414.5 1241.4,413.4 1240.7,412.4 1242.5,410.1 1244.9,408.7 1246.9,409.2 1250.3,408.5 1250.2,406.4 1247.3,405.1 1249.4,404.5 1252.1,405.5 1254.2,407.1 1257.6,408.2 1258.7,407.8 1261.2,409.0 1263.5,407.8 1265.0,408.2 1266.0,407.4 1267.8,409.4 1266.7,411.5 1265.2,413.2 1263.8,413.3 1264.3,414.9 1263.1,416.9 1261.7,418.9 1262.0,420.0 1265.2,422.2 1268.3,423.5 1270.3,424.9 1273.2,427.2 1274.3,427.2 1276.4,428.3 1277.0,429.5 1280.9,430.8 1283.5,429.5 1284.3,427.3 1285.1,425.6 1285.6,423.4 1286.8,420.2 1286.3,418.2 1286.5,417.1 1286.1,414.8 1286.6,411.8 1287.4,411.0 1286.7,409.6 1287.7,407.5 1288.5,405.3 1288.6,404.2 1290.1,402.7 1291.2,404.6 1291.5,407.1 1292.5,407.6 1292.6,409.3 1294.1,411.3 1294.4,413.6 1294.2,415.1" fill="#78b428" stroke="#ffffff" stroke-width="6" stroke-linejoin="round"/>
<polygon points="1368.5,401.9 1369.6,403.3 1366.8,403.3 1365.3,400.8 1367.7,401.8 1368.5,401.9" fill="#78b428" stroke="#ffffff" stroke-width="6" stroke-linejoin="round"/>
<polygon points="1202.9,401.0 1201.2,401.0 1195.9,398.2 1199.6,397.4 1201.7,398.7 1203.1,399.9 1202.9,401.0" fill="#78b428" stroke="#ffffff" stroke-width="6" stroke-linejoin="round"/>
<polygon points="1363.4,399.5 1361.9,399.6 1359.4,399.2 1358.6,398.6 1358.8,397.0 1361.5,397.6 1362.8,398.4 1363.4,399.5" fill="#78b428" stroke="#ffffff" stroke-width="6" stroke-linejoin="round"/>
<polygon points="1366.7,398.4 1366.1,399.1 1363.2,395.7 1362.3,393.3 1363.7,393.3 1365.1,396.5 1366.7,398.4" fill="#78b428" stroke="#ffffff" stroke-width="6" stroke-linejoin="round"/>
<polygon points="1217.7,400.6 1214.3,401.4 1213.8,401.0 1214.2,399.6 1215.9,397.2 1219.9,395.6 1220.3,394.6 1223.8,393.7 1226.6,393.6 1227.8,393.1 1229.3,393.6 1227.9,394.7 1223.7,396.4 1220.4,397.6 1217.7,400.6" fill="#78b428" stroke="#ffffff" stroke-width="6" stroke-linejoin="round"/>
<polygon points="1191.6,392.4 1193.0,393.4 1195.5,393.1 1196.5,394.8 1191.9,395.6 1189.1,396.2 1187.0,396.1 1188.3,393.8 1190.5,393.8 1191.6,392.4" fill="#78b428" stroke="#ffffff" stroke-width="6" stroke-linejoin="round"/>
<polygon points="1211.6,392.4 1211.0,394.6 1205.0,395.7 1199.7,395.2 1199.7,393.8 1202.9,392.9 1205.4,394.1 1208.0,393.8 1211.6,392.4" fill="#78b428" stroke="#ffffff" stroke-width="6" stroke-linejoin="round"/>
<polygon points="1359.5,393.3 1359.7,394.2 1356.5,392.5 1354.3,391.0 1352.8,389.7 1353.4,389.3 1355.3,390.2 1358.6,392.1 1359.5,393.3" fill="#78b428" stroke="#ffffff" stroke-width="6" stroke-linejoin="round"/>
<polygon points="1350.2,389.4 1349.4,389.6 1347.6,388.7 1346.0,387.1 1346.2,386.4 1348.6,388.1 1350.2,389.4" fill="#78b428" stroke="#ffffff" stroke-width="6" stroke-linejoin="round"/>
<polygon points="1154.5,387.1 1162.2,387.5 1163.0,385.9 1170.5,387.8 1171.9,390.4 1177.9,391.1 1182.8,393.5 1178.3,395.0 1173.9,393.4 1170.2,393.5 1166.1,393.2 1162.3,392.5 1157.7,391.0 1154.8,390.6 1153.1,391.1 1145.8,389.4 1145.1,387.7 1141.5,387.4 1144.2,383.6 1149.1,383.8 1152.3,385.4 1153.9,385.7 1154.5,387.1" fill="#78b428" stroke="#ffffff" stroke-width="6" stroke-linejoin="round"/>
<polygon points="1258.9,384.9 1256.8,387.6 1256.5,384.6 1257.2,383.1 1258.0,381.8 1258.9,383.0 1258.9,384.9" fill="#78b428" stroke="#ffffff" stroke-width="6" stroke-linejoin="round"/>
<polygon points="1343.5,387.3 1342.4,387.7 1340.7,386.1 1338.9,383.6 1338.1,380.6 1338.6,380.2 1339.0,381.4 1340.3,382.3 1342.2,384.8 1344.1,386.2 1343.5,387.3" fill="#78b428" stroke="#ffffff" stroke-width="6" stroke-linejoin="round"/>
<polygon points="1327.9,381.9 1325.8,382.2 1325.2,383.4 1323.0,384.3 1321.0,385.3 1318.8,385.3 1315.6,384.1 1313.3,383.0 1313.6,381.8 1317.2,382.3 1319.4,382.0 1320.0,380.1 1320.6,380.0 1320.9,382.1 1323.2,381.8 1324.4,380.5 1326.6,379.0 1326.2,376.7 1328.5,376.6 1329.4,377.3 1329.3,379.5 1327.9,381.9" fill="#78b428" stroke="#ffffff" stroke-width="6" stroke-linejoin="round"/>
<polygon points="1229.0,373.8 1227.5,375.2 1224.7,374.4 1224.0,372.7 1228.0,372.5 1229.0,373.8" fill="#78b428" stroke="#ffffff" stroke-width="6" stroke-linejoin="round"/>
<polygon points="1241.9,372.4 1243.3,375.4 1240.0,373.8 1236.6,373.5 1234.4,373.7 1231.6,373.6 1232.5,371.4 1237.5,371.2 1241.9,372.4" fill="#78b428" stroke="#ffffff" stroke-width="6" stroke-linejoin="round"/>
<polygon points="1332.6,378.0 1331.3,379.1 1330.6,376.7 1329.6,375.2 1327.8,373.8 1325.5,372.1 1322.6,371.0 1323.8,370.0 1325.9,371.1 1327.3,372.0 1329.0,373.0 1330.6,374.6 1332.1,375.9 1332.6,378.0" fill="#78b428" stroke="#ffffff" stroke-width="6" stroke-linejoin="round"/>
<polygon points="1256.6,364.6 1257.7,371.1 1261.8,373.5 1265.2,369.2 1269.8,366.8 1273.3,366.8 1276.7,368.2 1279.7,369.6 1284.0,370.4 1290.9,373.2 1298.3,375.4 1301.1,377.5 1303.3,379.5 1303.9,381.9 1310.6,384.3 1311.6,386.5 1307.9,386.9 1308.8,389.6 1312.3,392.2 1314.9,396.4 1317.2,396.3 1317.1,398.1 1320.2,398.7 1319.0,399.5 1323.2,401.2 1322.8,402.3 1320.1,402.6 1319.1,401.6 1315.7,401.1 1311.7,400.5 1308.5,398.0 1306.3,395.8 1304.2,392.3 1299.0,390.5 1295.6,391.7 1293.1,393.0 1293.7,395.9 1290.5,397.3 1288.3,396.6 1284.1,396.5 1280.6,393.2 1276.5,392.4 1275.5,393.5 1270.5,393.6 1272.2,390.4 1274.7,389.3 1273.6,384.9 1271.7,381.6 1264.0,378.2 1260.7,377.9 1254.7,374.2 1253.5,376.1 1251.9,376.5 1251.0,375.0 1251.0,373.2 1248.0,371.3 1252.3,369.8 1255.1,369.9 1254.8,368.9 1248.9,368.9 1247.3,366.5 1243.8,365.7 1242.1,363.8 1247.5,362.8 1249.5,361.5 1255.9,363.1 1256.6,364.6" fill="#78b428" stroke="#ffffff" stroke-width="6" stroke-linejoin="round"/>
<polygon points="1221.0,354.3 1217.7,358.3 1214.7,359.1 1210.9,358.3 1204.2,358.5 1200.7,359.1 1200.2,362.1 1203.7,365.6 1205.9,363.8 1213.4,362.5 1213.0,364.3 1211.3,363.7 1209.6,366.1 1206.0,367.6 1209.8,372.7 1209.1,374.1 1212.7,378.7 1212.6,381.4 1210.5,382.5 1208.9,381.1 1210.9,377.9 1207.0,379.4 1206.0,378.3 1206.5,376.8 1203.6,374.4 1203.9,370.5 1201.2,371.7 1201.6,376.4 1201.7,382.1 1199.2,382.7 1197.5,381.5 1198.6,377.8 1198.0,374.0 1196.3,373.9 1195.1,371.2 1196.7,368.6 1197.3,365.4 1199.3,359.4 1200.1,357.7 1203.5,354.8 1206.7,355.9 1211.7,356.5 1216.3,356.3 1220.3,353.4 1221.0,354.3" fill="#78b428" stroke="#ffffff" stroke-width="6" stroke-linejoin="round"/>
<polygon points="1234.8,355.5 1234.5,359.0 1232.5,358.6 1231.9,361.0 1233.5,363.1 1232.4,363.6 1230.8,361.1 1229.6,356.0 1230.4,352.8 1231.7,351.3 1232.0,353.5 1234.4,353.8 1234.8,355.5" fill="#78b428" stroke="#ffffff" stroke-width="6" stroke-linejoin="round"/>
<polygon points="1143.3,383.4 1138.8,383.5 1135.5,380.1 1130.3,376.9 1128.6,374.5 1125.6,371.2 1123.6,368.2 1120.6,362.6 1117.1,359.3 1115.9,355.8 1114.4,352.7 1110.8,350.2 1108.7,346.8 1105.7,344.5 1101.5,340.1 1101.2,338.1 1103.7,338.2 1109.9,339.0 1113.5,342.9 1116.6,345.6 1118.8,347.3 1122.6,351.6 1126.6,351.7 1130.0,354.4 1132.3,357.8 1135.4,359.6 1133.8,362.8 1136.0,364.2 1137.5,364.3 1138.2,367.1 1139.6,369.4 1142.5,369.7 1144.4,372.2 1143.4,377.2 1143.3,383.4" fill="#78b428" stroke="#ffffff" stroke-width="6" stroke-linejoin="round"/>
<polygon points="1191.5,352.7 1196.0,356.4 1191.2,356.9 1189.9,359.6 1190.1,363.2 1186.2,366.0 1186.1,369.9 1184.6,376.1 1184.0,374.6 1179.5,376.4 1177.9,374.0 1175.0,373.8 1173.0,372.5 1168.3,373.9 1166.8,372.0 1164.2,372.2 1160.9,371.7 1160.3,366.4 1158.3,365.3 1156.4,361.8 1155.8,358.3 1156.3,354.6 1158.7,352.0 1161.6,353.3 1164.7,352.6 1165.5,349.2 1167.2,348.5 1172.0,347.6 1174.9,344.4 1176.8,341.9 1178.4,340.4 1181.8,338.2 1184.9,335.4 1186.9,332.3 1188.5,332.3 1190.6,334.3 1190.8,336.1 1193.4,337.2 1196.7,338.4 1196.4,339.9 1193.8,340.1 1194.5,342.1 1191.5,343.4 1189.3,347.1 1192.2,350.8 1191.5,352.7" fill="#78b428" stroke="#ffffff" stroke-width="6" stroke-linejoin="round"/>
<polygon points="1225.5,326.3 1225.9,329.0 1226.1,331.2 1224.8,334.9 1223.3,330.8 1221.5,332.9 1222.7,335.8 1221.6,337.7 1216.9,335.4 1215.8,332.5 1217.0,330.6 1214.4,328.7 1213.2,330.3 1211.3,330.2 1208.3,332.4 1207.7,331.2 1209.2,327.9 1211.8,326.7 1214.0,325.2 1215.4,327.0 1218.4,325.9 1219.1,324.2 1221.9,324.1 1221.6,321.0 1224.9,322.9 1225.2,324.9 1225.5,326.3" fill="#78b428" stroke="#ffffff" stroke-width="6" stroke-linejoin="round"/>
<polygon points="1044.9,335.2 1041.4,336.1 1039.5,332.9 1038.8,327.2 1040.6,320.7 1043.4,322.9 1045.2,325.7 1047.2,329.9 1046.5,334.1 1044.9,335.2" fill="#78b428" stroke="#ffffff" stroke-width="6" stroke-linejoin="round"/>
<polygon points="476.3,319.6 472.9,320.0 472.2,319.6 473.4,318.5 473.3,317.0 475.6,316.4 476.4,316.6 476.3,319.6" fill="#78b428" stroke="#ffffff" stroke-width="6" stroke-linejoin="round"/>
<polygon points="1215.9,318.9 1214.5,320.2 1213.2,322.7 1212.0,323.9 1209.5,321.1 1210.3,320.1 1211.3,319.0 1211.8,316.5 1214.0,316.2 1213.4,318.9 1216.3,315.1 1215.9,318.9" fill="#78b428" stroke="#ffffff" stroke-width="6" stroke-linejoin="round"/>
<polygon points="1194.0,322.7 1188.7,326.5 1190.7,323.7 1193.5,321.3 1195.9,318.5 1198.0,314.5 1198.8,317.8 1196.1,320.0 1194.0,322.7" fill="#78b428" stroke="#ffffff" stroke-width="6" stroke-linejoin="round"/>
<polygon points="1207.5,312.4 1209.9,313.7 1212.5,313.7 1212.4,315.3 1210.6,317.0 1208.0,318.2 1207.9,316.4 1208.2,314.3 1207.5,312.4" fill="#78b428" stroke="#ffffff" stroke-width="6" stroke-linejoin="round"/>
<polygon points="1222.0,311.3 1223.1,315.8 1220.0,314.8 1220.1,316.1 1221.1,318.6 1219.2,319.5 1219.0,316.6 1217.8,316.4 1217.2,314.0 1219.6,314.3 1219.5,312.8 1217.1,309.8 1220.9,309.9 1222.0,311.3" fill="#78b428" stroke="#ffffff" stroke-width="6" stroke-linejoin="round"/>
<polygon points="1206.1,307.7 1205.0,311.2 1203.3,309.2 1201.3,306.1 1204.7,306.3 1206.1,307.7" fill="#78b428" stroke="#ffffff" stroke-width="6" stroke-linejoin="round"/>
<polygon points="1205.3,286.0 1207.8,287.1 1209.0,286.1 1209.3,287.1 1208.7,288.8 1210.1,291.6 1209.0,295.0 1206.7,296.3 1206.0,299.5 1206.9,302.7 1209.0,303.1 1210.8,302.7 1215.8,304.9 1215.4,307.0 1216.7,308.0 1216.3,309.9 1213.2,307.9 1211.7,305.8 1210.7,307.3 1208.1,304.9 1204.5,305.5 1202.5,304.6 1202.7,302.9 1204.0,301.9 1202.8,301.0 1202.3,302.4 1200.3,300.1 1199.7,298.4 1199.5,294.5 1201.1,295.9 1201.6,289.6 1202.9,286.0 1205.3,286.0" fill="#78b428" stroke="#ffffff" stroke-width="6" stroke-linejoin="round"/>
<polygon points="457.6,287.1 456.6,288.1 453.6,288.1 451.3,288.2 451.0,286.5 451.6,285.9 454.9,285.9 456.9,286.3 457.6,287.1" fill="#78b428" stroke="#ffffff" stroke-width="6" stroke-linejoin="round"/>
<polygon points="412.4,288.5 411.2,289.2 408.9,288.6 406.6,287.1 407.1,286.2 408.8,285.9 409.7,286.0 412.4,286.4 414.5,287.4 415.2,288.5 412.4,288.5" fill="#78b428" stroke="#ffffff" stroke-width="6" stroke-linejoin="round"/>
<polygon points="429.7,280.5 433.2,281.1 433.7,280.5 436.8,280.5 439.1,281.5 440.2,281.4 440.9,282.8 443.1,282.7 443.0,283.9 444.8,284.1 446.7,285.6 445.2,287.2 443.3,286.3 441.5,286.5 440.2,286.3 439.5,287.0 437.9,287.3 437.3,286.3 436.0,286.9 434.4,289.6 433.4,289.0 433.2,287.8 430.5,287.1 428.6,287.4 426.2,287.1 424.3,287.9 422.2,286.6 422.5,285.3 426.2,285.9 429.2,286.2 430.7,285.3 428.8,283.6 428.9,282.1 426.3,281.4 427.2,280.3 429.7,280.5" fill="#78b428" stroke="#ffffff" stroke-width="6" stroke-linejoin="round"/>
<polygon points="1161.4,285.3 1157.9,287.2 1154.6,286.0 1154.5,282.5 1156.5,280.7 1160.8,279.6 1163.1,279.7 1164.0,281.2 1162.3,283.0 1161.4,285.3" fill="#78b428" stroke="#ffffff" stroke-width="6" stroke-linejoin="round"/>
<polygon points="97.8,283.7 97.2,284.3 96.3,283.8 96.4,282.6 95.7,281.2 95.9,280.7 96.6,280.1 96.3,279.3 96.6,278.9 96.9,279.0 98.4,279.7 99.1,280.0 99.8,280.6 100.8,282.0 100.7,282.2 99.1,283.0 97.8,283.7" fill="#78b428" stroke="#ffffff" stroke-width="6" stroke-linejoin="round"/>
<polygon points="95.7,277.4 94.3,277.7 93.7,276.9 93.2,276.5 93.2,276.3 93.5,276.0 95.0,276.3 96.0,276.9 95.7,277.4" fill="#78b428" stroke="#ffffff" stroke-width="6" stroke-linejoin="round"/>
<polygon points="93.0,275.3 92.8,275.7 90.7,275.6 91.0,275.1 93.0,275.3" fill="#78b428" stroke="#ffffff" stroke-width="6" stroke-linejoin="round"/>
<polygon points="89.4,274.7 89.2,274.9 88.9,274.9 87.5,274.8 87.0,273.8 86.8,273.7 87.9,273.1 88.2,273.4 89.4,274.7" fill="#78b428" stroke="#ffffff" stroke-width="6" stroke-linejoin="round"/>
<polygon points="82.6,272.1 82.1,272.5 80.8,271.7 81.0,271.4 81.6,271.1 82.5,271.1 82.6,272.1" fill="#78b428" stroke="#ffffff" stroke-width="6" stroke-linejoin="round"/>
<polygon points="401.3,268.9 402.9,270.4 406.6,270.0 408.0,270.9 411.4,273.4 413.9,275.2 415.2,275.1 417.6,275.9 417.3,277.1 420.3,277.2 423.3,278.9 422.8,279.8 420.2,280.3 417.5,280.5 414.7,280.2 409.0,280.6 411.7,278.3 410.0,277.3 407.5,277.0 406.1,275.9 405.1,273.6 402.9,273.8 399.1,272.7 397.9,271.9 392.7,271.2 391.3,270.5 392.8,269.5 388.9,269.2 386.0,271.3 384.4,271.4 383.8,272.4 381.8,272.8 380.1,272.4 382.2,271.2 383.1,269.7 384.9,268.8 386.9,268.1 390.0,267.7 390.9,267.2 394.4,267.5 397.5,267.6 401.3,268.9" fill="#78b428" stroke="#ffffff" stroke-width="6" stroke-linejoin="round"/>
<polygon points="409.9,265.0 408.9,265.2 407.9,262.9 406.4,261.7 407.2,259.2 408.4,259.3 409.8,262.6 409.9,265.0" fill="#78b428" stroke="#ffffff" stroke-width="6" stroke-linejoin="round"/>
<polygon points="1204.7,268.8 1203.0,272.1 1200.9,268.7 1200.4,265.8 1202.8,261.8 1206.0,258.8 1207.8,260.0 1207.1,262.4 1204.7,268.8" fill="#78b428" stroke="#ffffff" stroke-width="6" stroke-linejoin="round"/>
<polygon points="408.7,253.7 404.4,254.3 404.1,252.8 406.0,252.5 408.6,252.6 408.7,253.7" fill="#78b428" stroke="#ffffff" stroke-width="6" stroke-linejoin="round"/>
<polygon points="412.0,253.6 411.3,256.5 410.6,256.0 410.6,253.9 408.8,252.3 408.8,251.8 412.0,253.6" fill="#78b428" stroke="#ffffff" stroke-width="6" stroke-linejoin="round"/>
<polygon points="1258.6,223.4 1259.1,224.8 1256.8,227.2 1255.2,225.9 1253.1,226.8 1252.1,229.2 1249.5,228.0 1249.5,226.1 1251.7,223.8 1254.0,224.2 1255.6,222.5 1258.6,223.4" fill="#78b428" stroke="#ffffff" stroke-width="6" stroke-linejoin="round"/>
<polygon points="858.3,217.3 855.6,219.0 855.9,219.8 856.0,220.1 851.9,221.7 850.0,221.2 849.0,219.6 850.9,219.4 851.2,219.4 851.8,218.5 854.7,218.5 858.3,217.3" fill="#78b428" stroke="#ffffff" stroke-width="6" stroke-linejoin="round"/>
<polygon points="814.8,217.2 817.0,218.5 820.1,218.3 823.1,218.6 823.0,219.3 825.2,218.8 824.7,220.0 818.9,220.3 818.9,219.7 814.1,218.9 814.8,217.2" fill="#78b428" stroke="#ffffff" stroke-width="6" stroke-linejoin="round"/>
<polygon points="782.1,207.1 780.6,210.2 781.2,211.5 780.4,213.5 777.3,212.0 775.3,211.6 769.7,209.5 770.3,207.5 775.0,207.9 779.0,207.4 782.1,207.1" fill="#78b428" stroke="#ffffff" stroke-width="6" stroke-linejoin="round"/>
<polygon points="756.8,195.2 759.2,198.0 758.7,203.3 756.9,203.0 755.2,204.4 753.7,203.3 753.6,198.5 752.6,196.2 754.8,196.4 756.8,195.2" fill="#78b428" stroke="#ffffff" stroke-width="6" stroke-linejoin="round"/>
<polygon points="1283.9,211.4 1282.4,214.6 1283.1,216.6 1281.0,219.4 1275.9,221.3 1268.9,221.6 1263.2,226.1 1260.5,224.6 1260.3,221.6 1253.4,222.5 1248.6,224.4 1243.9,224.5 1248.0,227.4 1245.3,234.2 1242.7,235.9 1240.8,234.3 1241.8,230.7 1239.3,229.6 1237.6,226.8 1241.4,225.6 1243.5,223.1 1247.5,221.0 1250.5,218.3 1258.4,217.1 1262.7,217.9 1266.9,210.8 1269.6,212.7 1275.4,208.7 1277.7,207.1 1280.2,202.2 1279.5,197.7 1281.2,195.2 1285.5,194.5 1287.7,200.0 1287.5,203.3 1283.8,207.3 1283.9,211.4" fill="#78b428" stroke="#ffffff" stroke-width="6" stroke-linejoin="round"/>
<polygon points="758.2,191.4 756.9,194.5 755.1,193.7 754.2,191.0 755.0,189.5 757.6,188.0 758.2,191.4" fill="#78b428" stroke="#ffffff" stroke-width="6" stroke-linejoin="round"/>
<polygon points="1295.6,183.3 1298.5,184.2 1301.3,182.5 1302.2,187.0 1296.2,188.0 1292.7,192.0 1286.4,189.3 1284.3,193.7 1279.8,193.7 1279.3,189.7 1281.2,186.7 1285.5,186.4 1286.7,180.9 1287.9,177.8 1292.6,182.0 1295.6,183.3" fill="#78b428" stroke="#ffffff" stroke-width="6" stroke-linejoin="round"/>
<polygon points="465.3,173.8 468.2,174.3 472.0,174.2 470.0,175.9 468.5,176.1 463.4,174.4 462.4,173.1 463.9,171.9 465.3,173.8" fill="#78b428" stroke="#ffffff" stroke-width="6" stroke-linejoin="round"/>
<polygon points="472.8,163.6 470.8,163.7 465.6,162.4 461.9,160.5 463.3,160.2 468.6,161.2 472.7,162.8 472.8,163.6" fill="#78b428" stroke="#ffffff" stroke-width="6" stroke-linejoin="round"/>
<polygon points="226.0,166.0 223.9,166.5 217.4,164.7 216.2,163.3 212.6,161.9 211.9,160.7 207.8,160.0 206.2,157.8 206.6,156.9 210.8,157.8 213.2,158.4 217.0,158.8 218.3,160.2 220.3,162.1 224.3,163.8 226.0,166.0" fill="#78b428" stroke="#ffffff" stroke-width="6" stroke-linejoin="round"/>
<polygon points="495.5,157.3 492.8,160.8 495.4,159.4 498.1,160.3 496.7,161.7 500.3,162.7 502.1,161.8 506.1,163.0 504.9,165.9 507.7,165.2 508.2,167.4 509.4,169.9 507.7,173.4 505.9,173.5 503.3,172.8 504.2,169.5 503.0,169.0 498.4,172.5 496.0,172.3 498.8,170.4 495.0,169.5 490.7,169.7 482.9,169.6 482.3,168.4 484.8,167.0 483.1,165.9 486.4,163.5 490.6,157.1 493.0,154.9 496.5,153.5 498.4,153.6 497.6,154.7 495.5,157.3" fill="#78b428" stroke="#ffffff" stroke-width="6" stroke-linejoin="round"/>
<polygon points="189.2,143.8 189.2,143.8 189.2,143.8 189.2,143.8 193.0,143.5 191.8,148.1 195.3,151.3 193.7,151.3 191.3,149.4 189.8,147.6 187.8,146.4 187.0,144.6 187.3,143.3 189.2,143.8" fill="#78b428" stroke="#ffffff" stroke-width="6" stroke-linejoin="round"/>
<polygon points="1294.6,157.0 1298.6,164.1 1292.7,162.8 1290.2,168.6 1294.1,172.7 1294.0,175.4 1291.0,173.0 1288.4,176.1 1287.6,172.8 1288.1,168.9 1287.6,164.6 1288.5,161.5 1288.7,156.2 1286.4,152.3 1286.7,146.8 1290.4,145.0 1288.8,143.1 1290.6,142.5 1291.7,145.2 1293.0,149.0 1292.9,153.0 1294.6,157.0" fill="#78b428" stroke="#ffffff" stroke-width="6" stroke-linejoin="round"/>
<polygon points="692.8,151.0 685.8,153.3 680.1,152.7 683.3,148.5 681.2,144.5 686.7,141.3 689.7,139.5 693.1,139.3 697.4,141.8 695.2,144.5 695.9,147.4 692.8,151.0" fill="#78b428" stroke="#ffffff" stroke-width="6" stroke-linejoin="round"/>
<polygon points="770.8,137.6 768.4,140.8 764.2,138.5 763.6,136.9 769.5,135.6 770.8,137.6" fill="#78b428" stroke="#ffffff" stroke-width="6" stroke-linejoin="round"/>
<polygon points="108.0,131.5 104.0,133.1 101.9,132.0 101.3,130.2 104.9,128.7 107.1,128.1 109.7,128.4 111.4,129.6 108.0,131.5" fill="#78b428" stroke="#ffffff" stroke-width="6" stroke-linejoin="round"/>
<polygon points="708.0,125.5 703.7,129.8 707.8,129.2 712.2,129.3 711.1,132.5 707.5,136.1 711.7,136.4 715.5,141.5 718.3,142.1 720.7,146.7 721.9,148.3 726.7,149.0 726.2,151.6 724.2,152.8 725.8,154.8 722.2,156.9 716.8,156.9 710.0,158.0 708.2,157.2 705.5,159.1 701.8,158.6 699.0,160.2 696.9,159.4 702.8,155.2 706.3,154.3 700.1,153.6 698.9,152.0 703.1,150.8 700.9,148.6 701.7,146.0 707.6,146.4 708.2,144.1 705.5,141.5 700.6,140.8 699.7,139.8 701.1,138.0 699.8,136.9 697.7,138.8 697.4,134.9 695.4,132.9 696.9,128.7 700.0,125.5 703.2,125.8 708.0,125.5" fill="#78b428" stroke="#ffffff" stroke-width="6" stroke-linejoin="round"/>
<polygon points="57.7,120.4 55.2,121.0 52.6,120.2 50.2,119.1 54.1,118.5 57.3,118.8 57.7,120.4" fill="#78b428" stroke="#ffffff" stroke-width="6" stroke-linejoin="round"/>
<polygon points="402.9,111.4 401.4,113.5 399.6,113.1 398.6,111.9 398.7,111.7 400.3,110.5 401.9,110.5 402.9,111.4" fill="#78b428" stroke="#ffffff" stroke-width="6" stroke-linejoin="round"/>
<polygon points="392.4,109.2 387.7,111.4 384.9,111.3 384.0,110.2 387.0,108.3 392.5,108.4 392.4,109.2" fill="#78b428" stroke="#ffffff" stroke-width="6" stroke-linejoin="round"/>
<polygon points="33.1,104.9 35.5,105.6 38.0,105.2 41.3,106.3 45.2,106.8 44.9,107.2 41.9,108.1 38.8,107.2 37.3,106.5 33.8,106.7 32.8,106.4 33.1,104.9" fill="#78b428" stroke="#ffffff" stroke-width="6" stroke-linejoin="round"/>
<polygon points="379.4,97.4 380.1,99.1 382.1,98.5 384.5,99.6 388.8,100.9 393.4,102.2 393.8,104.1 396.7,103.8 399.6,105.1 396.0,106.4 389.8,105.4 387.6,103.6 383.6,105.7 377.9,107.8 376.5,105.5 371.1,105.8 374.6,103.9 375.1,100.7 376.5,97.0 379.4,97.4" fill="#78b428" stroke="#ffffff" stroke-width="6" stroke-linejoin="round"/>
<polygon points="662.0,94.2 661.0,96.8 665.6,99.5 660.4,102.5 648.8,105.3 645.4,106.0 640.1,105.4 628.9,104.2 632.9,102.4 624.2,100.4 631.3,99.7 631.1,98.5 622.7,97.6 625.4,94.9 631.5,94.4 637.7,97.1 643.8,94.9 648.8,96.0 655.3,93.9 662.0,94.2" fill="#78b428" stroke="#ffffff" stroke-width="6" stroke-linejoin="round"/>
<polygon points="416.5,91.4 412.1,91.6 411.1,89.6 412.8,87.4 416.4,86.9 419.5,88.0 419.6,89.7 419.1,90.2 416.5,91.4" fill="#78b428" stroke="#ffffff" stroke-width="6" stroke-linejoin="round"/>
<polygon points="19.9,93.7 22.6,94.7 21.7,91.8 32.6,92.3 40.4,96.1 36.4,97.8 29.9,98.2 29.8,102.2 28.2,103.0 24.4,102.9 21.4,101.5 16.1,100.3 15.2,98.6 11.1,97.9 6.6,98.4 4.4,97.0 5.3,95.6 0.5,96.5 2.3,98.4 0.0,100.1 0.0,84.1 9.8,87.2 20.3,91.2 19.9,93.7" fill="#78b428" stroke="#ffffff" stroke-width="6" stroke-linejoin="round"/>
<polygon points="337.4,83.6 334.9,85.0 329.5,83.8 326.3,84.2 320.8,82.4 324.3,81.2 327.1,79.4 331.4,80.6 333.8,81.3 335.0,82.0 337.4,83.6" fill="#78b428" stroke="#ffffff" stroke-width="6" stroke-linejoin="round"/>
<polygon points="1440.0,76.7 1435.6,76.9 1434.9,75.6 1440.0,73.9 1440.0,76.7" fill="#78b428" stroke="#ffffff" stroke-width="6" stroke-linejoin="round"/>
<polygon points="5.2,76.4 0.0,76.7 0.0,73.9 0.5,73.8 3.9,73.8 9.7,74.9 9.3,75.5 5.2,76.4" fill="#78b428" stroke="#ffffff" stroke-width="6" stroke-linejoin="round"/>
<polygon points="357.8,82.0 357.8,86.1 363.1,83.0 367.9,85.5 366.7,88.5 370.6,91.2 374.8,88.3 377.7,84.9 377.9,80.5 383.6,80.8 389.5,81.4 394.9,83.4 395.1,85.3 392.1,87.5 395.0,89.6 394.5,91.6 386.6,94.4 381.1,95.0 376.9,93.8 375.7,95.8 371.9,99.1 370.7,100.9 366.1,103.6 360.3,103.9 357.2,105.6 356.9,108.2 352.3,108.7 347.4,111.9 343.0,116.4 341.5,119.6 341.3,124.2 347.1,124.9 348.9,128.6 350.8,131.7 356.4,130.9 363.8,132.6 367.8,134.1 370.7,136.0 375.7,137.1 380.0,138.8 386.6,139.0 390.9,139.4 390.3,142.9 391.5,146.9 394.4,151.4 400.3,155.2 403.4,153.9 405.6,149.8 403.5,143.4 400.7,141.3 407.1,139.5 411.6,136.6 413.8,133.9 413.5,131.2 410.8,127.8 405.9,124.8 410.7,120.6 408.9,117.0 407.6,110.7 410.4,109.8 417.2,110.9 421.3,111.3 424.6,110.2 428.4,111.6 433.3,113.9 434.5,115.5 441.6,115.8 441.5,119.1 442.8,124.2 446.5,124.8 449.4,127.2 455.2,124.9 459.0,120.5 461.7,118.7 464.8,122.2 470.0,127.3 474.4,132.1 472.8,134.6 478.1,136.9 481.7,139.2 488.1,140.2 490.7,141.5 492.3,144.9 495.4,145.4 497.0,146.9 497.3,151.4 494.4,152.9 491.5,154.3 484.9,155.7 479.9,159.0 473.1,159.7 464.6,158.8 458.5,158.8 454.4,159.1 451.1,162.0 446.0,163.7 440.2,169.0 435.6,172.7 439.0,172.1 445.4,166.8 453.8,163.5 459.8,163.1 463.3,165.0 459.5,167.7 460.8,172.0 462.1,175.0 467.3,177.0 473.9,176.5 477.9,172.0 478.2,174.9 480.8,176.3 475.8,178.9 467.0,181.3 463.0,182.9 458.5,185.8 455.5,185.5 455.4,182.1 462.3,178.8 455.9,179.0 451.5,179.4 452.1,180.8 447.9,182.7 443.8,184.1 439.5,185.3 437.2,187.9 436.7,188.5 436.7,190.7 438.0,192.8 439.7,192.9 439.3,191.4 440.5,192.3 440.1,193.5 437.4,194.1 435.5,194.0 432.6,194.7 430.8,194.9 428.5,195.1 425.2,196.3 431.0,195.5 432.2,196.3 426.6,197.5 424.1,197.5 424.2,197.0 423.0,198.1 424.2,198.3 423.3,201.2 420.4,204.2 420.1,203.2 419.2,203.0 417.9,202.0 418.7,204.2 419.7,204.9 419.8,206.4 418.5,207.9 416.2,211.1 415.9,211.0 417.1,208.3 415.1,206.7 414.6,203.4 413.8,205.1 414.7,207.7 412.2,207.1 414.8,208.3 415.0,212.1 416.1,212.4 416.5,213.8 417.1,217.8 414.5,220.8 410.4,222.0 407.8,224.3 405.8,224.6 403.8,226.0 403.2,227.4 398.8,230.0 396.5,231.9 394.7,234.2 394.0,237.1 394.7,239.9 396.1,243.3 397.9,246.1 397.9,247.8 399.8,252.5 399.6,255.2 399.5,256.7 398.5,259.2 397.3,259.7 395.3,259.2 394.7,257.4 393.2,256.5 391.0,253.1 389.2,250.0 388.6,248.5 389.4,245.8 388.3,243.6 385.2,240.3 383.6,239.6 379.6,241.5 378.8,241.3 376.9,239.4 374.4,238.4 369.9,238.9 366.3,238.5 363.3,238.7 361.6,239.3 362.3,240.4 362.3,242.0 363.1,242.8 362.4,243.4 360.9,242.8 359.4,243.5 356.5,243.4 353.5,241.3 350.0,241.8 347.1,240.9 344.6,241.1 341.2,242.1 337.6,245.0 333.6,246.8 331.4,248.7 330.5,250.5 330.5,253.2 330.7,255.2 331.4,256.5 331.4,256.5 331.4,256.5 329.9,260.0 329.2,262.9 328.9,268.3 328.5,270.2 329.2,272.4 330.4,274.4 331.2,277.5 333.9,280.4 334.8,282.7 336.4,284.7 340.6,285.7 342.3,287.4 345.8,286.3 348.9,285.9 351.9,285.2 354.4,284.5 356.9,282.9 357.9,280.5 358.2,277.2 358.9,276.0 361.6,275.0 365.8,274.0 369.4,274.2 371.8,273.8 372.8,274.7 372.6,276.6 370.5,279.0 369.5,281.4 370.3,282.1 369.7,283.8 368.7,287.0 367.6,285.9 366.8,286.0 366.8,286.6 367.6,286.6 367.5,287.7 366.9,289.4 367.2,290.0 366.8,291.5 367.0,291.9 366.6,293.9 365.8,294.9 365.1,295.1 364.3,296.5 365.6,297.2 365.9,296.6 367.1,297.1 367.5,297.2 368.4,296.5 369.5,296.5 369.9,296.8 370.5,296.6 372.4,297.0 374.2,296.9 375.5,296.4 376.0,296.0 377.3,296.2 378.2,296.5 379.3,296.4 380.1,296.0 381.9,296.6 382.5,296.7 383.7,297.4 384.9,298.3 386.4,298.9 387.4,300.0 387.1,300.4 386.9,301.3 387.3,302.8 386.4,304.1 385.9,305.7 385.8,307.5 386.0,308.5 386.1,310.3 385.5,310.7 385.1,312.4 385.4,313.5 384.6,314.5 384.8,315.6 385.4,316.2 386.4,318.4 387.9,320.0 389.8,321.7 391.3,323.2 391.2,324.0 392.8,324.2 393.1,323.9 394.2,324.9 396.2,324.6 397.9,323.6 400.3,322.7 401.7,321.6 403.9,321.8 403.8,322.2 406.0,322.3 407.8,323.0 409.1,324.2 410.6,325.3 412.7,325.4 415.7,322.7 417.3,322.2 417.3,320.9 418.1,317.5 420.4,315.7 422.9,315.6 423.2,314.8 426.3,315.1 429.5,313.1 431.0,312.2 433.0,310.3 434.4,310.5 435.5,311.5 434.7,312.9 434.6,313.8 432.2,314.3 433.5,316.1 433.5,318.2 431.7,320.5 433.2,323.7 434.9,323.5 435.8,320.6 434.6,319.2 434.4,316.1 439.4,314.5 438.8,312.6 440.2,311.4 441.7,314.2 444.5,314.2 447.1,316.5 447.2,317.8 450.8,317.8 455.1,317.4 457.4,319.2 460.4,319.7 462.7,318.4 462.7,317.4 467.7,317.2 472.5,317.1 469.1,318.3 470.4,320.2 473.6,320.5 476.7,322.5 477.3,325.7 479.4,325.6 481.0,326.5 483.6,328.0 486.1,330.6 486.2,332.7 487.7,332.8 489.8,334.7 491.4,336.1 496.2,336.9 496.6,336.2 499.9,335.9 504.2,337.0 505.5,337.4 508.5,338.4 512.7,341.7 513.4,343.4 514.7,343.2 515.7,345.4 518.0,352.4 520.1,353.1 520.2,355.8 517.2,359.1 518.4,360.3 525.5,360.9 525.7,365.0 528.7,362.3 533.7,363.8 540.4,366.2 542.3,368.6 541.7,370.8 546.3,369.5 554.1,371.6 560.1,371.5 566.0,374.8 571.1,379.3 574.2,380.4 577.6,380.6 579.1,381.9 580.4,387.0 581.1,389.4 579.5,396.0 577.5,398.6 571.8,404.2 569.3,408.7 566.3,412.2 565.3,412.2 564.2,415.2 564.5,422.7 563.4,428.8 562.9,431.5 561.7,433.0 561.0,438.4 556.9,443.6 556.2,447.7 553.0,449.5 552.0,451.9 547.7,451.9 541.4,453.4 538.6,455.2 534.1,456.4 529.4,459.5 526.0,463.5 525.4,466.5 526.1,468.7 525.4,472.7 524.4,474.7 521.7,476.9 517.2,483.9 513.7,487.1 511.0,489.0 509.2,492.8 506.5,495.1 504.8,497.6 500.3,499.8 497.3,499.0 495.1,499.4 491.4,497.7 488.7,497.9 486.3,495.6 486.0,497.7 491.1,501.2 490.6,503.9 493.1,505.7 492.8,507.6 489.0,512.7 483.1,514.9 475.1,515.7 470.7,515.3 471.5,517.7 470.7,520.7 471.4,522.7 469.0,524.1 464.9,524.7 461.1,523.2 459.5,524.3 460.1,528.2 462.8,529.4 465.0,528.2 466.2,530.3 462.5,531.5 459.3,534.0 458.7,538.0 457.7,540.1 454.0,540.2 450.8,542.2 449.7,545.2 453.6,548.1 457.4,548.9 456.1,552.5 451.3,554.8 448.7,559.5 445.1,561.1 443.4,562.9 444.7,567.1 447.4,569.4 445.7,569.2 442.2,569.2 440.2,570.2 436.6,571.6 436.0,575.3 434.3,575.4 429.8,574.1 425.2,571.3 420.2,569.1 419.0,566.5 420.1,564.2 418.1,561.5 417.6,554.7 419.3,550.8 423.5,547.8 417.4,546.6 421.2,543.1 422.6,536.4 427.0,537.8 429.1,529.5 426.4,528.5 425.2,533.5 422.7,532.9 423.9,527.2 425.3,519.8 427.1,517.0 426.0,513.1 425.6,508.6 427.3,508.5 429.8,502.0 432.6,495.6 434.2,489.7 433.3,483.7 434.5,480.4 434.0,475.4 436.4,470.6 437.1,462.8 438.4,454.5 439.6,445.6 439.3,439.0 438.5,433.4 434.5,431.1 434.2,429.5 426.2,425.4 419.0,421.1 416.0,418.6 414.3,415.3 415.0,414.1 411.6,408.9 407.6,401.5 403.9,393.5 402.2,391.7 401.0,388.8 397.9,386.2 395.0,384.5 396.3,382.8 394.4,378.9 395.6,376.1 398.8,373.6 400.9,370.6 400.1,368.9 398.5,370.7 396.1,369.0 396.9,367.9 396.3,364.2 397.7,363.6 398.4,361.1 399.9,358.6 399.6,356.9 401.8,356.1 404.6,354.5 404.0,353.2 405.5,352.9 405.4,350.9 406.3,349.5 408.3,349.2 410.0,346.7 411.5,344.6 410.0,343.6 410.8,341.3 409.9,337.7 410.7,336.6 410.1,333.2 408.5,331.1 407.1,330.0 406.3,327.8 407.3,326.7 406.3,326.4 405.5,325.1 403.5,324.0 401.8,324.3 401.0,325.7 399.3,326.7 398.5,326.8 398.1,327.6 400.0,329.8 398.9,330.3 398.3,330.9 396.5,331.1 395.8,328.7 395.2,329.4 393.9,329.2 393.1,327.6 391.5,327.3 390.4,326.8 388.7,326.8 388.6,327.7 388.1,327.1 386.0,326.2 385.2,325.4 385.6,324.7 385.5,323.8 384.4,322.8 382.8,322.1 381.4,321.5 381.1,320.4 380.1,319.7 380.4,320.8 379.6,321.8 378.6,320.7 377.4,320.3 376.8,319.5 376.8,318.2 377.4,317.0 376.2,316.4 377.1,315.6 375.8,314.4 373.9,312.8 373.0,311.4 371.3,310.2 369.3,308.4 369.8,307.7 370.4,308.3 370.7,308.1 370.0,306.8 368.8,306.5 368.4,307.4 366.1,307.3 364.6,307.0 363.0,306.2 360.8,305.9 359.6,305.1 357.6,304.4 355.1,304.3 353.2,303.5 351.1,301.8 346.6,297.5 344.5,296.2 341.2,295.2 339.0,295.5 335.8,297.0 333.8,297.4 330.9,296.3 327.9,295.6 324.2,293.7 321.2,293.2 316.7,291.3 313.3,289.4 312.3,288.3 310.1,288.1 306.0,286.8 304.3,285.0 300.0,282.7 298.0,280.2 297.1,278.3 298.4,277.9 298.0,276.7 298.9,275.7 298.9,274.3 297.6,272.5 297.2,270.9 295.9,268.9 292.4,264.9 288.3,261.8 286.4,259.3 283.0,257.7 282.2,256.7 282.8,254.2 280.8,253.3 278.4,251.4 277.4,248.6 275.3,248.2 273.0,246.1 271.1,244.2 270.9,242.9 268.8,239.9 267.3,236.9 267.4,235.3 264.5,233.7 263.2,233.9 260.9,232.8 260.3,234.4 260.9,236.3 261.3,239.3 262.7,241.0 265.6,243.8 266.3,244.7 266.9,245.0 267.4,246.4 268.2,246.3 269.0,248.9 270.2,249.9 271.0,251.3 273.5,253.3 274.9,257.1 276.0,258.8 277.2,260.7 277.4,262.8 279.3,262.9 280.9,264.8 282.4,266.5 282.3,267.3 280.6,268.7 279.9,268.7 278.8,266.3 276.2,264.0 273.3,262.1 271.3,261.0 271.4,258.1 270.8,256.0 268.9,254.7 266.1,252.9 265.6,253.4 264.6,252.4 262.1,251.4 259.8,249.1 260.1,248.8 261.7,249.0 263.2,247.5 263.4,245.7 260.3,242.9 257.9,241.8 256.5,239.3 255.0,236.7 253.1,233.5 251.5,229.9 250.8,227.8 248.2,225.5 246.4,225.0 245.9,223.9 243.7,223.7 242.2,222.6 238.5,222.2 237.5,221.6 237.0,219.4 233.1,215.4 229.8,209.8 230.0,208.9 228.2,207.5 225.1,204.2 224.5,200.9 222.4,198.7 223.3,195.4 223.1,192.0 221.9,188.9 223.4,185.2 224.4,177.9 223.7,172.5 222.4,169.1 221.3,167.3 221.7,166.5 227.5,167.8 229.7,171.6 230.6,170.6 230.0,167.3 228.6,164.0 228.1,164.0 220.4,160.1 217.5,158.3 210.3,156.7 208.0,153.1 208.6,150.7 203.5,149.0 202.8,145.8 197.9,142.8 197.9,140.8 195.7,139.3 192.1,138.0 191.0,134.5 185.8,131.3 183.7,127.5 179.8,127.2 173.5,127.2 168.8,126.0 160.5,121.8 156.7,121.1 149.7,119.7 144.2,120.0 136.3,118.2 131.5,116.5 127.1,117.3 127.9,120.1 125.7,120.3 121.1,121.2 117.6,122.5 113.1,123.4 112.6,121.0 114.4,117.1 118.6,115.9 117.5,114.9 112.4,117.1 109.7,119.8 103.9,122.6 106.9,124.5 103.1,127.4 98.8,129.1 94.8,130.3 93.8,132.1 87.5,134.1 86.3,136.0 81.6,137.7 78.8,137.4 75.1,138.5 71.0,139.9 67.7,141.2 60.9,142.4 60.2,141.7 64.6,139.8 68.5,138.6 72.8,136.4 77.7,136.0 79.7,134.3 85.3,131.9 86.2,131.1 89.1,129.7 89.8,126.7 91.8,124.3 87.2,125.5 85.9,124.8 83.8,126.3 81.2,124.3 80.1,125.7 78.6,123.7 74.6,125.3 72.1,125.3 71.8,122.9 72.5,121.5 69.9,120.0 64.7,120.8 61.4,118.9 58.6,118.0 58.6,115.7 55.5,114.0 57.1,111.7 60.3,109.5 61.8,107.4 65.0,107.1 67.7,107.8 71.0,105.8 73.9,106.2 76.9,104.9 76.2,103.1 73.9,102.4 76.9,100.8 74.4,100.9 70.2,101.8 69.0,102.6 65.8,101.8 60.2,102.2 54.3,101.3 52.6,99.6 47.6,97.3 53.2,95.6 62.1,93.7 65.4,93.7 64.8,95.7 73.3,95.5 70.0,93.1 65.1,91.5 62.3,89.5 58.4,87.8 52.9,86.6 55.2,84.5 62.3,84.3 67.3,82.5 68.3,80.6 72.4,78.7 76.3,78.2 83.8,76.4 87.5,76.7 93.7,74.6 99.7,75.4 102.6,77.2 104.4,76.4 111.2,76.7 110.9,77.6 117.0,78.3 121.1,77.9 129.5,79.1 137.2,79.5 140.3,80.0 145.6,79.4 151.7,80.6 156.1,81.2 163.5,82.1 169.8,84.0 174.0,84.4 177.5,82.7 182.3,81.5 188.3,82.0 194.3,80.2 200.8,79.2 203.6,80.9 206.6,79.9 207.4,78.1 210.2,78.5 217.0,82.1 222.3,79.4 222.8,82.4 227.8,81.7 229.3,80.6 234.1,80.8 240.2,82.5 249.6,84.0 255.1,84.6 259.0,84.4 264.4,86.4 258.8,88.4 266.0,89.2 276.8,88.8 280.2,88.1 284.5,90.5 288.8,88.4 284.7,86.8 287.3,85.4 292.2,85.2 295.4,84.8 298.6,85.8 302.6,87.9 307.1,87.6 314.2,89.4 320.4,88.8 326.2,88.9 325.8,86.4 329.3,85.7 335.5,87.0 335.5,90.8 338.0,87.6 341.3,87.7 343.1,83.7 338.8,81.3 334.1,79.6 334.4,75.2 339.2,72.3 344.4,73.0 348.5,74.7 353.9,79.2 350.4,81.2 357.8,82.0" fill="#78b428" stroke="#ffffff" stroke-width="6" stroke-linejoin="round"/>
<polygon points="263.3,67.5 261.3,69.4 270.2,68.2 275.8,70.2 280.3,68.2 284.0,69.5 287.2,73.4 289.3,71.7 286.4,67.6 289.9,67.1 293.9,67.7 298.4,69.3 300.9,73.2 302.1,76.0 308.9,78.0 316.1,79.9 315.6,81.7 309.1,82.0 311.6,83.5 310.3,85.0 303.0,84.4 296.2,83.3 291.5,83.5 284.0,84.9 272.1,85.6 266.7,85.9 264.6,84.0 259.1,82.9 255.6,83.3 250.6,80.2 253.3,79.7 259.5,79.1 265.1,79.2 270.3,78.5 262.6,77.6 254.1,77.9 248.4,77.8 246.3,76.4 255.5,74.8 249.4,74.8 242.4,73.8 245.7,70.8 248.5,69.2 259.2,66.7 263.3,67.5" fill="#78b428" stroke="#ffffff" stroke-width="6" stroke-linejoin="round"/>
<polygon points="302.0,66.3 298.5,69.0 292.2,66.2 293.6,65.6 299.0,65.4 302.0,66.3" fill="#78b428" stroke="#ffffff" stroke-width="6" stroke-linejoin="round"/>
<polygon points="414.6,67.6 415.0,68.7 410.7,68.6 406.4,68.5 402.1,69.0 400.9,68.8 396.5,66.7 396.7,65.2 398.6,65.0 407.7,65.4 414.6,67.6" fill="#78b428" stroke="#ffffff" stroke-width="6" stroke-linejoin="round"/>
<polygon points="373.8,67.4 376.9,69.9 380.6,66.6 390.7,65.0 397.6,69.1 397.0,71.8 404.9,70.6 408.7,69.0 417.6,71.0 423.1,72.9 423.6,74.7 431.0,73.8 435.2,76.3 444.9,77.9 448.3,79.5 452.1,83.3 444.8,85.1 454.2,87.7 460.6,88.6 466.3,92.3 472.6,92.6 471.3,95.4 464.3,100.0 459.4,98.3 453.1,94.4 447.9,94.9 447.4,97.2 451.6,99.6 457.1,101.4 458.7,102.5 461.3,106.4 459.9,109.3 454.9,108.2 444.9,105.0 450.5,108.5 454.7,110.9 455.3,112.3 444.5,110.7 435.9,108.4 431.1,106.4 432.5,105.3 426.5,103.2 420.7,101.3 420.7,102.4 409.2,103.1 405.8,101.7 408.4,98.8 415.9,98.7 424.2,98.2 422.8,96.8 424.2,94.8 429.4,90.9 428.3,89.1 426.8,87.7 420.6,85.8 412.5,84.4 415.1,83.4 410.9,80.9 407.3,80.7 404.2,79.3 402.0,80.5 394.8,81.0 380.2,80.1 371.8,79.0 365.3,78.4 361.9,77.0 366.1,75.1 360.4,75.1 359.2,71.1 362.3,67.5 366.4,65.8 376.7,64.8 373.8,67.4" fill="#78b428" stroke="#ffffff" stroke-width="6" stroke-linejoin="round"/>
<polygon points="318.6,64.6 323.3,65.5 330.5,65.0 331.5,66.1 327.8,68.0 333.8,69.8 333.1,73.4 326.6,74.9 322.7,74.6 319.9,73.0 310.0,70.0 310.1,68.7 318.2,69.2 313.8,66.6 318.6,64.6" fill="#78b428" stroke="#ffffff" stroke-width="6" stroke-linejoin="round"/>
<polygon points="1294.4,67.2 1288.4,67.2 1280.2,66.7 1279.5,66.5 1283.2,64.9 1288.2,64.6 1293.9,66.1 1294.4,67.2" fill="#78b428" stroke="#ffffff" stroke-width="6" stroke-linejoin="round"/>
<polygon points="347.2,68.9 342.9,71.9 338.4,71.8 335.9,68.2 335.9,66.3 338.0,64.6 342.0,63.5 350.3,63.6 358.0,64.6 352.0,68.1 347.2,68.9" fill="#78b428" stroke="#ffffff" stroke-width="6" stroke-linejoin="round"/>
<polygon points="238.2,74.4 227.6,76.4 225.5,74.6 216.3,72.5 217.6,71.2 220.8,67.9 224.2,65.3 220.3,62.8 233.8,62.2 239.6,63.0 249.8,63.3 253.7,64.4 258.0,66.1 252.9,67.1 243.1,69.9 238.2,72.7 238.2,74.4" fill="#78b428" stroke="#ffffff" stroke-width="6" stroke-linejoin="round"/>
<polygon points="1322.9,59.7 1318.3,61.2 1311.9,60.9 1304.5,59.3 1305.4,58.0 1312.9,58.6 1322.9,59.7" fill="#78b428" stroke="#ffffff" stroke-width="6" stroke-linejoin="round"/>
<polygon points="345.5,60.1 343.4,61.6 337.6,61.3 332.7,60.3 334.8,58.5 340.6,57.4 344.1,58.8 345.5,60.1" fill="#78b428" stroke="#ffffff" stroke-width="6" stroke-linejoin="round"/>
<polygon points="1300.3,57.7 1297.2,60.7 1282.5,60.6 1275.8,61.6 1267.9,59.0 1270.0,56.2 1275.3,55.5 1285.9,55.6 1300.3,57.7" fill="#78b428" stroke="#ffffff" stroke-width="6" stroke-linejoin="round"/>
<polygon points="326.0,53.1 329.1,55.0 329.2,57.0 327.4,60.0 320.8,60.4 316.5,59.8 316.5,57.4 310.0,57.7 309.7,54.7 314.0,54.8 320.1,53.4 325.7,53.6 326.0,53.1" fill="#78b428" stroke="#ffffff" stroke-width="6" stroke-linejoin="round"/>
<polygon points="287.2,55.2 288.7,56.6 292.3,55.9 296.5,56.1 297.2,58.1 294.7,60.0 281.2,60.6 271.1,62.3 265.0,62.4 264.5,61.1 272.8,59.4 254.8,59.8 249.2,59.1 254.6,55.2 258.4,54.1 269.6,55.4 276.7,57.8 283.7,58.1 278.0,54.3 281.7,52.8 285.8,53.3 287.2,55.2" fill="#78b428" stroke="#ffffff" stroke-width="6" stroke-linejoin="round"/>
<polygon points="950.1,77.1 947.8,77.5 934.7,76.9 933.6,75.2 926.4,74.1 925.8,71.9 929.9,71.1 929.8,68.9 937.7,65.5 934.0,65.0 943.6,61.5 942.5,59.7 951.5,57.6 964.7,55.0 978.0,54.2 984.8,52.8 992.6,52.2 995.4,53.8 992.7,55.1 978.5,57.0 966.3,59.0 953.9,62.8 947.9,66.7 941.7,70.5 942.5,73.8 950.1,77.1" fill="#78b428" stroke="#ffffff" stroke-width="6" stroke-linejoin="round"/>
<polygon points="341.3,51.6 345.7,52.9 353.6,52.9 357.0,54.2 356.1,55.7 360.7,56.6 363.3,57.6 368.6,57.7 374.5,58.1 380.8,57.2 389.0,56.9 395.5,57.1 399.8,58.7 400.7,60.3 398.2,61.4 392.2,62.2 387.1,61.7 375.6,62.4 367.4,62.4 360.9,61.9 350.3,60.6 348.9,58.5 348.4,56.5 344.4,54.7 336.2,54.2 331.5,53.0 333.0,51.4 341.3,51.6" fill="#78b428" stroke="#ffffff" stroke-width="6" stroke-linejoin="round"/>
<polygon points="255.2,49.4 254.7,52.5 251.6,53.9 247.8,54.1 240.4,55.8 234.0,56.4 228.6,55.5 228.6,55.5 235.4,52.5 243.6,50.0 249.7,50.0 255.2,49.4" fill="#78b428" stroke="#ffffff" stroke-width="6" stroke-linejoin="round"/>
<polygon points="1147.9,52.1 1149.0,54.1 1152.6,53.1 1164.3,53.2 1173.3,55.1 1176.5,56.6 1175.5,58.7 1171.1,59.9 1160.6,62.1 1157.6,63.3 1162.6,63.8 1168.5,64.8 1172.1,64.1 1174.1,66.7 1175.9,65.6 1182.3,65.0 1195.1,65.6 1196.1,67.5 1212.8,68.1 1213.0,65.1 1221.5,65.8 1227.9,65.7 1234.4,67.8 1236.2,70.4 1233.8,72.1 1238.9,75.2 1245.2,76.9 1249.0,72.7 1255.4,74.5 1262.2,73.4 1270.0,74.6 1272.9,73.5 1279.5,74.0 1276.6,70.3 1281.9,68.6 1318.0,71.2 1321.4,73.6 1331.9,76.6 1348.0,75.9 1356.0,76.5 1359.3,78.2 1358.8,81.1 1363.8,82.3 1369.1,81.4 1376.2,81.3 1383.8,82.1 1391.3,81.7 1398.3,85.2 1403.3,83.9 1400.0,81.4 1401.8,79.6 1414.6,80.7 1422.9,80.5 1434.4,82.4 1440.0,84.1 1440.0,100.1 1440.0,100.1 1434.8,101.9 1429.6,101.6 1433.3,103.7 1435.6,107.0 1437.5,108.1 1437.9,109.7 1436.9,110.8 1429.5,109.9 1418.3,112.9 1414.7,113.4 1408.6,116.2 1402.8,118.7 1401.3,120.5 1395.6,117.7 1385.2,120.8 1383.4,119.4 1379.5,121.1 1374.2,120.5 1372.9,123.2 1368.1,127.0 1368.2,128.6 1372.8,129.5 1372.2,135.4 1368.5,135.5 1366.8,138.9 1368.5,140.6 1361.5,142.6 1360.1,147.2 1354.1,148.2 1352.9,152.2 1347.2,156.0 1345.7,153.2 1344.0,147.4 1341.7,138.5 1343.7,132.9 1347.0,130.5 1347.2,128.7 1353.5,127.8 1360.6,122.7 1367.5,118.6 1374.7,115.4 1377.9,109.8 1373.0,110.1 1370.6,113.4 1360.5,117.8 1357.2,112.9 1346.9,114.3 1336.9,121.0 1340.2,123.4 1331.2,124.5 1325.1,124.9 1325.4,122.0 1319.1,121.4 1314.2,123.3 1301.9,122.7 1288.8,123.8 1275.8,131.6 1260.5,141.1 1266.8,141.6 1268.8,144.1 1272.7,145.0 1275.2,143.0 1279.6,143.2 1285.4,147.6 1285.5,151.0 1282.4,155.0 1282.1,159.8 1280.2,166.2 1274.2,172.0 1272.9,174.8 1267.4,179.4 1262.1,184.0 1259.5,186.4 1254.1,188.8 1251.6,188.8 1249.1,186.9 1243.7,189.8 1243.1,191.1 1241.6,190.9 1239.9,192.2 1238.7,193.6 1238.8,196.5 1236.8,197.4 1236.0,198.1 1234.5,199.2 1231.9,199.9 1230.1,201.0 1230.0,202.7 1229.5,203.1 1231.1,203.8 1233.4,205.6 1236.9,210.3 1237.8,212.9 1237.9,217.5 1236.4,219.7 1232.7,220.4 1229.5,222.1 1225.9,222.4 1225.5,220.3 1226.2,217.3 1224.5,213.1 1227.4,212.4 1224.7,209.0 1222.8,208.2 1222.3,209.0 1221.1,209.3 1221.0,208.6 1219.9,208.2 1218.8,207.6 1219.9,205.8 1220.9,205.3 1220.5,204.6 1221.5,202.4 1221.3,201.8 1218.9,201.4 1217.1,200.3 1211.5,201.4 1208.5,203.3 1204.2,204.4 1206.3,202.6 1205.5,201.0 1208.7,198.3 1206.6,196.2 1203.1,197.6 1198.6,200.4 1196.1,203.0 1192.2,203.2 1190.1,205.0 1192.2,207.8 1195.5,208.4 1195.6,210.2 1198.8,211.4 1203.3,208.5 1206.8,210.1 1209.4,210.2 1210.1,212.3 1204.4,213.4 1202.5,215.6 1198.7,217.6 1196.6,220.4 1200.9,222.6 1202.5,226.5 1204.9,230.2 1207.6,233.2 1207.6,236.2 1205.1,237.3 1206.0,239.4 1208.4,240.7 1207.8,243.9 1206.7,247.1 1204.5,247.5 1201.6,251.8 1198.3,257.0 1194.6,261.8 1189.1,265.5 1183.6,268.9 1179.1,269.3 1176.6,271.1 1175.2,269.8 1173.0,271.8 1167.4,273.8 1163.1,274.4 1161.8,278.6 1159.6,278.9 1158.5,276.0 1159.5,274.4 1154.1,273.1 1152.2,273.8 1146.9,277.2 1143.5,281.0 1142.6,283.8 1145.7,288.0 1149.4,293.2 1153.1,295.7 1155.5,298.9 1157.3,306.3 1156.8,313.3 1153.5,316.0 1148.9,318.5 1145.6,321.9 1140.6,325.6 1139.2,323.0 1140.3,320.3 1137.3,318.1 1134.0,317.5 1132.4,315.4 1130.3,311.3 1126.7,309.4 1123.3,309.5 1123.9,306.3 1120.4,306.4 1120.1,310.8 1117.9,316.6 1116.6,320.1 1116.9,323.0 1119.5,323.2 1121.1,326.8 1121.8,330.3 1124.1,332.6 1126.5,333.0 1128.6,335.1 1129.5,335.5 1131.8,337.9 1133.5,340.6 1133.8,343.3 1133.3,345.1 1133.7,346.5 1134.0,348.8 1135.4,349.9 1137.0,353.5 1136.9,354.8 1134.1,355.1 1130.3,352.1 1125.6,349.0 1125.1,346.9 1122.8,344.2 1122.2,340.9 1120.8,338.8 1121.2,335.8 1120.3,334.1 1118.8,332.6 1118.1,330.6 1116.0,328.4 1114.0,326.5 1113.4,328.8 1112.6,326.6 1113.0,324.1 1114.2,320.3 1113.8,317.3 1115.1,314.2 1113.7,311.9 1114.0,307.5 1112.4,305.4 1111.1,300.7 1110.4,295.6 1108.7,292.3 1106.0,294.3 1101.5,297.1 1099.2,296.8 1096.8,295.8 1098.1,290.9 1097.3,287.1 1094.2,282.5 1094.7,281.1 1092.3,280.6 1089.5,277.3 1088.3,275.2 1088.1,273.2 1087.3,271.3 1085.7,268.9 1082.0,268.8 1082.3,270.4 1081.1,272.7 1079.4,271.8 1078.8,272.6 1077.7,272.1 1076.1,271.8 1075.6,273.2 1072.8,273.2 1067.9,274.0 1068.1,277.0 1066.0,279.4 1060.2,282.1 1055.8,286.8 1052.8,289.3 1048.8,291.9 1048.8,293.8 1046.8,294.8 1043.2,296.2 1041.3,296.4 1040.1,299.5 1040.9,304.7 1041.1,308.0 1039.4,311.8 1039.4,318.6 1037.4,318.8 1035.5,321.8 1036.8,323.1 1033.1,324.3 1031.8,327.0 1030.2,328.1 1026.4,324.4 1024.5,318.8 1023.0,314.8 1021.6,312.9 1019.5,309.0 1018.5,304.0 1017.8,301.5 1014.1,296.0 1012.5,288.3 1011.3,283.2 1011.3,278.3 1010.5,274.6 1004.7,277.0 1001.9,276.5 996.7,271.6 998.6,270.2 997.4,268.6 992.7,265.2 989.8,264.2 988.6,261.3 985.5,258.3 978.1,259.1 971.6,259.1 966.0,259.7 958.5,258.5 954.1,257.6 949.6,257.0 947.9,252.1 946.0,251.4 942.9,252.1 938.9,254.1 934.0,252.7 929.9,249.7 926.1,248.5 923.4,244.7 920.5,239.4 918.3,240.1 915.8,238.7 914.3,240.3 911.9,240.1 912.7,241.9 912.4,242.8 913.7,245.8 915.2,249.2 917.2,250.2 917.9,251.6 920.6,253.2 920.9,254.9 920.5,256.2 921.0,257.6 922.1,258.7 922.6,260.0 923.2,261.0 923.0,258.1 924.1,256.0 925.1,255.5 926.4,256.8 926.4,259.1 925.6,261.5 926.3,263.0 927.0,262.8 927.2,263.9 930.3,263.3 933.6,263.4 936.0,263.5 938.8,260.8 941.8,258.2 944.3,255.8 945.4,254.4 945.9,254.8 945.6,256.4 945.0,257.1 945.6,260.3 947.4,263.0 949.6,264.5 952.5,265.0 954.9,265.7 956.7,268.0 957.8,269.4 959.2,269.9 959.2,270.8 957.8,273.1 957.1,274.3 955.4,275.5 954.0,278.3 952.1,278.1 951.3,279.0 950.7,281.1 951.2,283.7 950.8,284.2 948.9,284.2 946.4,285.7 946.0,287.7 945.1,288.5 942.6,288.5 941.1,289.5 941.1,291.1 939.2,292.2 937.0,291.8 934.3,293.2 932.4,293.4 929.5,294.5 928.8,296.2 928.7,297.6 924.7,299.3 918.3,301.2 914.7,304.0 913.0,304.2 911.8,304.0 909.4,305.6 906.9,306.4 903.5,306.6 902.5,306.8 901.6,307.9 900.6,308.2 900.0,309.2 898.0,309.1 896.7,309.7 893.9,309.5 892.9,307.1 893.0,304.9 892.4,303.7 891.6,300.8 890.4,299.1 891.2,299.0 890.8,297.1 891.3,296.4 891.1,294.6 890.6,292.9 889.4,291.7 889.1,290.1 887.0,288.7 884.9,285.3 883.8,282.1 881.0,279.3 879.2,278.6 876.6,274.8 876.1,272.1 876.3,269.7 874.0,265.2 872.1,263.7 869.9,262.9 868.6,260.6 868.8,259.7 867.7,257.6 866.6,256.7 865.0,253.7 862.6,250.5 860.5,247.7 858.5,247.8 859.2,245.6 859.3,244.2 859.8,242.6 859.7,242.0 858.6,243.6 857.7,246.6 856.6,248.7 855.7,249.4 854.4,248.1 852.5,246.3 849.7,240.6 849.3,241.0 850.9,245.2 853.4,249.2 856.4,255.4 857.9,257.6 859.2,259.9 862.8,264.3 862.0,265.0 862.1,267.6 866.8,271.2 867.5,272.0 868.8,275.9 867.9,276.6 868.5,280.8 869.9,285.5 871.5,286.5 873.6,288.0 876.0,292.6 877.1,296.3 879.3,298.3 884.7,302.0 886.9,304.3 889.1,306.6 890.4,308.0 892.3,309.2 893.3,310.4 893.1,312.1 890.9,313.1 892.6,314.2 893.9,314.9 894.7,316.5 896.5,318.2 898.5,318.2 902.2,317.2 906.6,316.7 910.1,315.5 912.1,315.2 913.5,314.5 915.8,314.4 917.1,314.3 918.9,313.7 921.0,313.3 922.9,311.9 924.4,311.9 924.5,313.0 924.2,315.3 924.2,317.4 923.3,318.9 922.2,323.2 920.3,327.7 917.8,332.8 914.4,338.6 911.0,343.1 906.3,348.6 902.3,351.8 896.3,355.8 892.5,358.8 888.2,363.7 887.2,365.8 886.3,366.7 883.5,368.3 882.6,370.0 881.1,370.3 880.5,373.1 879.2,374.7 878.4,377.4 876.8,378.7 875.0,383.6 875.2,385.9 877.8,387.4 877.9,388.4 876.8,390.8 877.0,392.0 876.7,393.9 878.1,396.4 879.8,400.4 881.3,401.3 881.9,403.1 881.7,407.0 882.2,410.6 882.4,416.8 883.1,418.8 881.9,421.6 880.4,424.4 877.8,426.9 874.2,428.4 869.6,430.3 865.1,434.6 863.6,435.4 860.8,438.2 859.1,439.1 858.8,442.0 860.7,445.0 861.5,447.4 861.5,448.6 862.3,448.4 862.1,452.3 861.5,454.1 862.4,454.8 861.8,456.5 860.2,457.9 856.9,459.3 852.1,461.4 850.3,462.9 850.6,464.6 851.7,464.9 851.3,467.0 850.3,469.9 849.8,473.2 848.8,475.0 846.1,477.0 845.3,477.6 843.6,479.6 842.5,481.7 840.2,484.6 835.7,488.7 832.9,491.1 829.9,492.9 825.7,494.5 823.6,494.7 823.1,495.8 820.7,495.2 818.7,495.9 814.4,495.2 812.0,495.7 810.3,495.5 806.2,497.0 802.8,497.7 800.3,499.2 798.5,499.3 796.8,497.9 795.4,497.8 793.7,496.0 793.5,496.5 793.0,495.5 793.0,493.1 791.7,490.4 793.0,489.7 792.9,486.6 790.3,482.9 788.3,479.5 788.3,479.5 785.4,474.3 782.4,471.3 780.8,468.4 780.0,464.5 779.0,461.6 777.6,455.4 777.5,450.6 777.0,448.4 775.5,446.8 773.4,443.5 771.3,438.7 770.4,436.2 767.2,432.3 766.9,429.2 766.6,426.7 767.1,423.2 768.5,419.5 768.7,417.8 770.0,414.2 771.0,412.6 773.3,409.9 774.5,408.2 775.0,405.2 774.7,402.9 773.5,401.5 772.5,399.1 771.5,396.7 771.7,395.8 772.9,394.3 771.7,390.4 770.9,387.7 768.9,385.2 769.3,384.4 768.7,383.2 767.7,380.2 764.4,375.9 760.3,371.9 757.6,368.6 755.2,364.4 755.3,363.1 756.2,361.8 757.2,358.9 758.0,356.0 757.2,355.4 758.6,350.9 759.2,347.7 757.6,345.1 755.8,344.4 755.0,342.6 754.0,342.0 754.0,340.9 749.8,342.4 748.3,342.1 746.8,343.0 743.6,342.9 741.5,340.4 740.1,337.6 737.3,334.9 734.3,335.0 730.8,335.0 727.5,335.4 724.2,336.3 718.0,338.6 715.7,340.0 712.1,341.2 708.6,340.0 706.8,340.1 704.0,339.3 701.4,339.3 696.7,340.0 693.9,341.2 689.9,342.6 689.2,342.5 688.1,342.6 684.0,340.7 680.3,337.6 676.9,335.4 674.2,332.9 673.2,332.6 670.3,330.9 668.2,328.8 667.5,327.3 667.0,324.4 665.3,322.0 663.7,320.5 662.7,319.9 661.7,319.1 661.2,317.4 660.6,316.5 659.5,315.8 657.3,314.2 655.7,313.9 654.7,312.8 654.8,312.2 653.5,311.3 653.3,310.5 652.6,307.4 653.1,305.6 651.5,302.5 649.5,301.1 651.3,300.3 653.2,297.5 654.1,295.5 653.8,293.3 654.9,291.3 655.4,287.6 655.0,283.6 654.5,281.6 654.9,279.6 653.9,277.7 651.7,276.0 651.9,274.3 652.1,272.5 653.6,271.4 655.0,269.3 654.7,267.9 656.1,265.1 658.3,262.6 659.6,261.9 660.7,259.6 660.8,257.5 662.2,255.0 664.9,253.5 667.4,249.4 669.5,247.8 673.2,247.4 676.4,244.7 678.4,243.6 681.7,240.3 680.7,235.3 682.3,231.8 682.8,229.7 685.4,227.0 689.4,225.2 692.4,223.6 695.0,219.4 696.3,217.0 699.2,217.0 701.6,218.7 705.4,218.4 709.6,219.3 711.3,219.3 715.2,217.1 719.5,216.4 722.0,214.8 725.9,213.6 732.6,212.9 739.3,212.5 741.3,213.1 745.0,211.6 749.3,211.5 750.9,212.5 753.7,212.2 758.0,210.6 760.8,211.1 760.7,213.1 764.1,211.6 764.4,212.4 762.4,214.4 762.4,216.2 763.8,217.2 763.2,220.7 760.6,222.7 761.4,224.9 763.4,224.9 764.4,226.8 766.0,227.5 770.7,228.8 772.3,228.5 775.7,229.2 781.0,230.9 782.9,234.5 786.4,235.3 792.1,236.9 796.3,238.9 798.3,237.9 800.2,236.1 799.3,233.0 800.5,231.0 803.4,229.2 806.2,228.6 811.6,229.4 812.9,231.2 814.4,231.3 815.7,231.9 819.7,232.4 820.7,233.7 826.0,233.7 829.8,234.7 833.8,235.9 835.7,236.5 838.7,235.3 840.4,234.1 843.9,233.8 846.8,234.3 847.8,236.3 848.8,235.0 852.0,235.9 855.1,236.1 857.1,235.1 858.2,233.8 858.0,233.6 859.0,231.7 859.8,228.7 860.4,227.7 860.5,227.6 861.9,224.4 863.9,221.6 864.0,221.4 863.6,218.4 864.6,216.7 863.1,214.9 864.6,213.4 862.2,213.7 858.9,212.8 856.1,215.1 850.0,215.6 846.8,213.4 842.5,213.3 841.6,214.9 838.8,215.4 834.9,213.3 830.6,213.4 828.2,209.4 825.3,207.2 827.2,204.1 824.7,202.1 829.1,198.3 835.3,198.2 837.0,195.1 844.6,195.6 849.4,193.1 854.1,191.9 860.7,191.8 867.7,194.7 873.4,196.2 878.1,195.6 881.5,195.9 886.2,193.9 886.8,192.1 885.8,189.4 883.5,187.9 881.3,187.5 879.8,186.3 874.7,182.9 870.2,181.4 866.7,179.0 869.6,178.4 872.9,175.0 870.7,173.5 876.6,171.8 876.5,170.9 872.9,171.6 869.7,171.9 867.0,173.2 863.3,173.4 859.8,174.9 860.1,177.4 862.0,178.4 866.1,178.1 865.3,179.5 861.0,180.2 855.5,182.6 853.3,181.7 854.2,179.9 849.8,178.7 850.5,177.9 854.4,176.6 853.2,175.7 847.0,174.7 846.7,173.2 843.0,173.7 841.5,175.9 838.4,178.8 838.5,179.9 836.6,180.7 835.4,180.3 834.2,185.2 832.2,186.8 830.7,189.7 832.0,192.0 832.5,193.5 836.0,194.8 835.2,195.8 830.5,196.0 828.8,197.2 825.4,199.4 824.2,197.5 824.2,196.7 821.8,196.6 819.7,196.2 814.9,197.3 817.6,199.5 815.6,200.2 813.4,200.2 811.3,198.1 810.5,199.0 811.4,201.4 813.4,203.2 811.9,204.1 814.1,206.0 816.1,207.1 816.2,209.4 812.5,208.3 813.6,210.4 811.1,210.8 812.6,214.3 810.0,214.4 806.7,212.6 805.2,209.4 804.5,206.8 802.9,204.9 800.9,202.6 800.6,201.5 799.9,201.2 799.8,200.3 797.6,199.0 797.3,197.1 797.6,194.4 798.2,193.1 797.5,192.5 796.6,192.2 795.5,190.9 793.8,190.1 790.0,188.6 787.7,187.2 784.1,186.0 780.7,183.0 781.5,182.7 779.7,181.0 779.6,179.7 777.0,179.1 775.8,180.8 774.6,179.5 774.7,178.1 774.9,178.0 775.8,177.6 772.6,177.1 769.3,178.5 769.5,180.5 769.0,181.6 770.4,183.6 774.1,185.6 776.1,189.0 780.6,192.2 783.7,192.2 784.7,193.0 783.6,193.8 787.1,195.3 790.1,196.5 793.5,198.6 793.9,199.3 793.2,200.8 791.0,198.9 787.5,198.2 785.8,200.8 788.7,202.3 788.2,204.4 786.5,204.6 784.4,208.1 782.7,208.4 782.8,207.1 783.6,205.0 784.4,204.1 782.9,201.8 781.7,199.8 780.0,199.3 778.8,197.6 776.2,196.9 774.5,195.2 771.6,195.0 768.4,193.2 764.8,190.6 762.0,188.3 760.8,184.3 758.8,183.9 755.6,182.5 753.7,183.1 751.4,184.9 749.7,185.2 746.1,187.5 738.2,186.4 732.4,187.7 731.9,190.1 732.2,192.4 728.4,195.1 723.2,195.9 722.9,197.3 720.4,199.5 718.9,202.8 720.4,205.0 718.1,206.8 717.3,209.4 714.2,210.2 711.4,213.3 706.3,213.4 702.5,213.3 700.0,214.7 698.5,216.2 696.5,215.9 695.1,214.5 693.9,212.2 690.2,211.6 688.6,212.6 686.5,212.1 684.4,212.5 685.0,209.4 684.6,206.9 682.9,206.6 681.9,205.1 682.2,202.4 683.8,201.0 684.1,199.4 684.9,197.0 684.8,195.3 684.0,193.8 683.9,192.5 684.1,189.6 682.4,187.9 688.1,185.0 693.0,185.7 698.4,185.7 702.6,186.4 705.9,186.2 712.4,186.3 714.5,183.9 715.2,175.9 711.1,171.7 708.1,169.7 702.0,168.2 701.6,165.3 706.8,164.4 713.5,165.4 712.3,160.9 716.0,162.6 725.4,159.5 726.6,156.2 730.1,155.4 733.3,154.6 735.3,153.5 738.8,147.6 744.3,146.0 747.6,146.1 748.4,145.2 751.7,145.0 752.5,145.9 755.2,143.9 754.3,142.4 754.1,140.1 752.5,137.9 752.4,133.8 753.0,132.8 754.2,131.6 757.7,131.3 759.1,130.2 762.3,129.1 762.2,131.1 761.0,132.4 761.5,133.6 763.6,134.2 762.7,135.7 761.5,135.2 758.6,138.1 759.7,140.1 759.8,141.6 763.8,142.5 763.8,144.0 767.8,143.2 770.1,142.1 774.6,143.7 776.5,145.0 779.2,143.8 785.5,141.9 790.5,140.6 794.5,141.3 794.8,142.2 798.6,142.3 799.6,140.5 805.1,139.2 804.2,135.9 804.4,132.9 806.3,130.4 810.1,129.0 813.3,132.0 816.5,131.9 817.3,128.8 817.7,126.5 816.2,127.0 813.7,125.5 813.4,123.3 818.4,122.1 823.5,121.6 827.8,122.2 831.9,122.1 836.5,119.9 832.3,118.0 825.0,118.3 818.0,119.8 811.5,120.6 809.2,118.4 805.3,117.1 806.2,113.2 804.2,109.6 806.1,107.2 809.8,104.7 818.9,100.4 821.6,99.6 821.2,97.9 815.6,96.0 808.7,97.1 804.9,99.9 805.5,102.3 799.1,105.6 791.4,109.0 788.5,114.6 791.3,117.5 795.2,119.7 791.5,124.2 787.3,125.1 785.8,131.8 783.5,135.6 778.7,135.2 776.4,138.4 771.8,138.6 770.5,134.8 767.2,130.2 764.1,124.6 761.4,122.1 753.5,126.7 748.2,127.7 742.7,125.6 741.2,121.3 740.0,112.1 743.7,109.5 754.2,106.2 762.1,102.1 769.4,96.5 779.0,88.8 785.7,85.7 796.7,80.7 805.5,79.0 812.1,79.2 818.2,75.9 825.5,76.1 832.7,75.3 845.2,78.2 840.0,79.3 844.4,81.8 848.5,80.4 855.1,82.8 866.1,83.7 881.2,88.3 884.2,90.2 884.5,92.8 880.1,94.9 873.5,96.0 855.7,93.0 852.7,93.5 859.3,96.4 859.8,102.3 864.9,103.6 868.1,104.6 868.6,102.7 866.1,100.9 868.7,99.4 878.4,101.9 881.7,100.9 879.1,98.0 888.4,94.1 892.1,94.3 895.8,95.7 898.1,93.0 894.8,90.6 896.8,88.2 893.8,85.7 905.0,87.0 907.3,89.2 902.2,89.7 902.2,92.0 905.4,93.3 911.6,92.5 912.6,89.9 920.9,88.0 934.9,84.6 937.9,84.8 933.9,87.2 938.9,87.6 941.8,86.2 949.3,86.1 955.2,84.5 959.8,86.9 964.3,84.2 960.1,81.9 962.2,80.6 974.0,81.8 979.6,83.1 994.0,87.6 996.7,85.5 992.7,83.4 992.5,82.6 987.7,82.2 989.0,80.3 986.9,77.2 986.8,75.9 994.2,72.3 996.8,68.6 999.8,67.8 1010.4,68.9 1011.2,71.1 1007.4,74.4 1009.9,75.6 1011.2,78.4 1010.3,83.9 1014.7,86.4 1013.0,89.0 1005.1,94.7 1009.7,95.3 1011.3,93.9 1015.7,92.8 1016.7,90.9 1020.2,89.0 1017.9,86.7 1019.7,84.0 1015.4,83.7 1014.4,81.5 1017.6,77.5 1012.4,74.2 1019.6,71.5 1018.6,68.7 1020.6,68.6 1022.7,70.8 1021.2,74.7 1025.4,75.4 1023.6,72.5 1030.3,70.9 1038.6,70.7 1046.0,73.0 1042.4,69.7 1042.0,65.4 1049.0,64.6 1058.6,64.8 1067.3,64.3 1064.0,62.2 1068.7,59.5 1073.3,59.4 1081.0,57.4 1091.6,56.9 1092.9,55.8 1103.4,55.4 1106.7,56.3 1115.7,54.2 1123.0,54.3 1124.1,52.6 1128.0,50.9 1137.4,49.2 1144.3,50.5 1138.8,51.5 1147.9,52.1" fill="#78b428" stroke="#ffffff" stroke-width="6" stroke-linejoin="round"/>
<polygon points="344.6,49.9 342.8,50.0 335.3,49.8 334.3,48.7 342.3,48.7 345.1,49.5 344.6,49.9" fill="#78b428" stroke="#ffffff" stroke-width="6" stroke-linejoin="round"/>
<polygon points="279.3,49.2 271.8,50.4 265.9,49.1 269.1,47.8 274.9,47.4 280.6,48.0 279.3,49.2" fill="#78b428" stroke="#ffffff" stroke-width="6" stroke-linejoin="round"/>
<polygon points="818.9,48.6 810.0,50.2 802.9,49.3 805.7,48.3 803.2,47.0 811.5,46.2 813.1,47.7 818.9,48.6" fill="#78b428" stroke="#ffffff" stroke-width="6" stroke-linejoin="round"/>
<polygon points="281.3,45.6 276.5,46.4 269.8,46.4 269.9,45.8 274.0,44.6 276.1,44.8 281.3,45.6" fill="#78b428" stroke="#ffffff" stroke-width="6" stroke-linejoin="round"/>
<polygon points="336.7,47.8 330.8,48.6 327.5,47.7 325.8,46.2 325.5,44.5 330.7,44.7 333.0,44.9 337.8,46.3 336.7,47.8" fill="#78b428" stroke="#ffffff" stroke-width="6" stroke-linejoin="round"/>
<polygon points="319.8,46.7 321.3,48.4 314.8,47.9 308.2,46.6 299.3,46.5 303.2,45.3 298.3,44.3 298.0,42.8 305.9,43.3 316.7,44.8 319.8,46.7" fill="#78b428" stroke="#ffffff" stroke-width="6" stroke-linejoin="round"/>
<polygon points="1140.3,46.8 1117.8,48.3 1125.1,43.1 1128.3,42.6 1131.4,42.9 1141.5,45.1 1140.3,46.8" fill="#78b428" stroke="#ffffff" stroke-width="6" stroke-linejoin="round"/>
<polygon points="793.0,41.2 806.2,44.2 796.1,45.7 793.9,48.7 790.4,49.4 788.5,52.8 783.7,52.9 775.1,50.5 778.7,49.1 772.7,47.9 764.9,44.5 761.8,41.4 772.7,40.0 774.9,41.4 780.6,41.3 782.1,39.9 788.0,39.8 793.0,41.2" fill="#78b428" stroke="#ffffff" stroke-width="6" stroke-linejoin="round"/>
<polygon points="821.8,38.4 829.6,39.8 823.7,41.9 812.1,42.4 800.3,41.7 799.6,40.6 793.8,40.6 789.5,38.7 801.8,37.6 807.6,38.6 811.7,37.4 821.8,38.4" fill="#78b428" stroke="#ffffff" stroke-width="6" stroke-linejoin="round"/>
<polygon points="924.5,37.8 919.2,38.3 915.6,38.6 915.0,39.3 910.3,40.0 906.0,39.0 908.3,37.8 899.4,37.6 907.2,36.9 913.3,36.9 914.1,37.9 916.4,37.0 920.2,36.3 926.1,37.2 924.5,37.8" fill="#78b428" stroke="#ffffff" stroke-width="6" stroke-linejoin="round"/>
<polygon points="1119.8,44.5 1111.0,45.0 1099.9,43.8 1093.3,42.3 1090.2,39.4 1084.7,38.6 1095.1,35.9 1103.8,35.0 1111.5,37.0 1120.7,40.9 1119.8,44.5" fill="#78b428" stroke="#ffffff" stroke-width="6" stroke-linejoin="round"/>
<polygon points="371.9,41.4 376.7,42.7 371.2,43.8 363.9,46.9 356.8,47.1 348.5,46.6 344.2,45.0 344.3,43.5 347.4,42.5 340.1,42.5 335.7,41.2 333.2,39.4 335.9,37.6 338.7,36.4 342.8,36.1 341.1,35.2 350.4,35.0 355.5,37.1 362.2,38.0 368.8,38.7 371.9,41.4" fill="#78b428" stroke="#ffffff" stroke-width="6" stroke-linejoin="round"/>
<polygon points="446.0,27.6 456.7,27.9 465.3,28.4 472.6,29.5 472.4,30.6 462.7,32.3 453.0,33.1 449.4,34.0 458.1,34.0 448.6,36.4 442.1,37.5 435.3,40.8 427.0,41.5 424.5,42.3 412.4,42.7 417.9,43.2 415.1,43.9 418.4,45.9 414.6,47.3 408.4,48.4 406.5,50.0 401.0,51.2 401.5,52.1 408.4,51.9 408.4,52.9 397.8,55.3 387.3,54.2 375.6,54.8 369.6,54.3 362.0,54.1 361.5,52.2 368.9,51.3 367.0,48.4 369.4,48.1 380.1,49.8 374.6,47.3 368.2,46.5 371.4,45.0 378.5,44.0 379.6,42.6 374.0,41.1 372.3,39.0 383.2,39.2 386.4,39.6 392.6,38.1 383.6,37.7 369.6,37.9 362.5,36.6 359.2,35.0 354.5,33.8 353.7,32.4 359.6,31.7 364.3,31.5 372.1,30.9 378.0,29.4 383.0,29.6 387.3,30.7 390.3,28.6 395.6,27.9 402.8,27.5 415.0,27.3 417.1,27.7 428.7,27.1 437.3,27.3 446.0,27.6" fill="#78b428" stroke="#ffffff" stroke-width="6" stroke-linejoin="round"/>
<polygon points="611.6,25.9 636.6,29.1 629.2,30.6 613.9,30.8 592.4,31.2 594.4,31.9 608.6,31.5 620.6,32.9 628.4,31.6 631.7,33.1 627.3,35.4 637.5,33.9 656.9,32.4 668.9,33.1 671.2,34.8 654.9,37.7 652.6,38.6 639.8,39.3 649.1,39.5 644.4,42.4 641.2,45.0 641.3,49.4 646.1,52.1 639.9,52.2 633.3,53.5 640.7,55.6 641.6,59.0 637.3,59.4 642.5,62.8 633.6,63.1 638.3,64.7 637.0,66.1 631.3,66.8 625.7,66.8 630.7,69.5 630.8,71.3 622.9,69.6 620.8,70.7 626.2,71.7 631.5,74.1 633.0,77.3 625.9,78.1 622.8,76.6 617.8,74.3 619.2,77.0 614.5,79.1 625.1,79.3 630.6,79.5 619.9,83.0 609.0,86.1 597.3,87.5 592.9,87.5 588.8,89.1 583.2,93.3 574.6,96.1 571.8,96.2 566.5,97.2 560.8,98.2 557.3,100.6 557.3,103.4 555.2,106.1 548.7,109.3 550.3,112.4 548.5,115.7 546.5,119.6 540.9,119.9 534.9,116.6 526.9,116.6 523.1,114.4 520.4,110.5 513.5,105.5 511.4,102.9 510.9,99.3 505.4,95.6 506.8,92.7 504.1,91.2 508.1,86.6 514.1,85.1 515.7,83.4 516.5,80.3 511.9,81.7 509.8,82.3 506.2,82.9 501.3,81.6 501.0,78.8 502.6,76.7 506.3,76.7 514.4,77.7 507.6,75.2 504.0,73.8 500.0,74.4 496.7,73.4 501.1,69.7 498.7,68.2 495.5,65.4 490.7,61.2 485.6,59.6 485.7,57.9 474.9,55.6 466.4,55.3 455.7,55.5 446.0,55.8 441.3,54.5 434.4,52.0 444.9,50.7 452.9,50.5 435.8,49.5 426.8,47.8 427.4,46.3 442.5,44.3 457.2,42.4 458.7,41.0 447.9,39.5 451.4,37.9 465.2,35.1 471.1,34.7 469.4,32.9 478.9,31.9 491.2,31.2 503.5,31.2 507.8,32.4 518.4,30.2 528.0,31.7 533.6,32.1 541.9,33.4 532.4,31.2 532.9,29.5 546.4,27.1 560.4,27.3 565.5,25.8 579.6,25.4 611.6,25.9" fill="#78b428" stroke="#ffffff" stroke-width="6" stroke-linejoin="round"/>
</svg>
